<svg xmlns="http://www.w3.org/2000/svg" xmlns:xlink="http://www.w3.org/1999/xlink" width="449" zoomAndPan="magnify" viewBox="0 0 336.75 139.500001" height="186" preserveAspectRatio="xMidYMid meet" version="1.0"><defs><clipPath id="1955adaa5a"><path d="M 143.230469 0.296875 L 214.972656 0.296875 L 214.972656 85.492188 L 143.230469 85.492188 Z M 143.230469 0.296875 " clip-rule="nonzero"/></clipPath><clipPath id="4270e73344"><path d="M 229.339844 0.324219 L 301.082031 0.324219 L 301.082031 85.519531 L 229.339844 85.519531 Z M 229.339844 0.324219 " clip-rule="nonzero"/></clipPath><clipPath id="5eaed90b3a"><path d="M 68.371094 0.132812 L 131.148438 0.132812 L 131.148438 85.328125 L 68.371094 85.328125 Z M 68.371094 0.132812 " clip-rule="nonzero"/></clipPath><clipPath id="e99946e7ac"><path d="M 0.476562 0 L 59.242188 0 L 59.242188 83.464844 L 0.476562 83.464844 Z M 0.476562 0 " clip-rule="nonzero"/></clipPath><clipPath id="d33e094f02"><path d="M 0.445312 83.464844 C 2.992188 72.21875 10.203125 62.1875 18.683594 54.554688 C 30.65625 43.773438 48.535156 36.765625 46.742188 17.519531 C 44.578125 -5.722656 7.3125 -1.613281 10.277344 20.089844 C 10.96875 25.125 15.691406 28.679688 20.257812 30.1875 C 21.089844 30.378906 20.628906 31.046875 20.332031 31.519531 C 19.941406 32.136719 14.871094 37.167969 14.460938 37.199219 C 0.863281 30.226562 -2.675781 13.167969 11.726562 4.757812 C 40.644531 -12.132812 79.625 18.757812 41.445312 44.117188 C 27.164062 53.605469 9.652344 59.339844 3.707031 77.617188 C 4.617188 78.429688 15.558594 77 17.6875 76.945312 C 31.757812 76.578125 45.566406 78.195312 59.09375 73.078125 L 55.839844 83.464844 Z M 0.445312 83.464844 " clip-rule="nonzero"/></clipPath><clipPath id="350ba21842"><path d="M 0.476562 0 L 59.242188 0 L 59.242188 83.464844 L 0.476562 83.464844 Z M 0.476562 0 " clip-rule="nonzero"/></clipPath><clipPath id="2ea70bafd4"><path d="M 0.445312 83.464844 C 2.992188 72.21875 10.203125 62.1875 18.683594 54.554688 C 30.65625 43.773438 48.535156 36.765625 46.742188 17.519531 C 44.578125 -5.722656 7.3125 -1.613281 10.277344 20.089844 C 10.96875 25.125 15.691406 28.679688 20.257812 30.1875 C 21.089844 30.378906 20.628906 31.046875 20.332031 31.519531 C 19.941406 32.136719 14.871094 37.167969 14.460938 37.199219 C 0.863281 30.226562 -2.675781 13.167969 11.726562 4.757812 C 40.644531 -12.132812 79.625 18.757812 41.445312 44.117188 C 27.164062 53.605469 9.652344 59.339844 3.707031 77.617188 C 4.617188 78.429688 15.558594 77 17.6875 76.945312 C 31.757812 76.578125 45.566406 78.195312 59.09375 73.078125 L 55.839844 83.464844 Z M 0.445312 83.464844 " clip-rule="nonzero"/></clipPath><clipPath id="bbbb2ff202"><rect x="0" width="60" y="0" height="84"/></clipPath><clipPath id="f0218847b9"><path d="M 180.882812 76.632812 L 222.730469 76.632812 L 222.730469 139 L 180.882812 139 Z M 180.882812 76.632812 " clip-rule="nonzero"/></clipPath><clipPath id="722ea2588d"><path d="M 212.144531 70.640625 L 262.964844 70.640625 L 262.964844 129.679688 L 212.144531 129.679688 Z M 212.144531 70.640625 " clip-rule="nonzero"/></clipPath><clipPath id="492c3b843f"><path d="M 250.210938 100.816406 L 289.070312 100.816406 L 289.070312 117.257812 L 250.210938 117.257812 Z M 250.210938 100.816406 " clip-rule="nonzero"/></clipPath><clipPath id="bab3309f91"><path d="M 266.582031 79.433594 L 331.960938 79.433594 L 331.960938 130.84375 L 266.582031 130.84375 Z M 266.582031 79.433594 " clip-rule="nonzero"/></clipPath><clipPath id="dd70fe0479"><path d="M 331.117188 85.203125 C 329.34375 86.535156 327.421875 87.125 325.351562 87.71875 C 316.921875 89.789062 310.121094 89.789062 301.398438 89.34375 C 293.265625 98.957031 283.359375 113.59375 280.253906 122.910156 C 279.808594 124.089844 279.515625 125.273438 279.21875 126.457031 C 278.925781 127.34375 278.777344 128.230469 279.367188 128.96875 C 280.105469 129.5625 280.992188 129.117188 281.734375 128.675781 C 286.464844 126.308594 290.753906 123.351562 294.746094 120.097656 L 313.226562 105.609375 C 313.816406 105.164062 314.410156 104.425781 315.445312 104.425781 C 315.59375 104.425781 315.738281 104.574219 315.886719 104.574219 C 315.886719 104.722656 316.035156 105.019531 316.035156 105.019531 C 315.886719 105.3125 315.738281 105.757812 315.59375 105.90625 C 314.410156 106.941406 313.226562 107.972656 311.894531 108.863281 C 306.722656 113.148438 301.25 117.289062 296.074219 121.429688 C 292.230469 124.386719 288.238281 127.195312 283.804688 129.414062 C 282.324219 130.152344 280.699219 130.890625 278.925781 130.597656 C 277.59375 130.449219 276.707031 129.414062 276.707031 128.082031 C 276.707031 126.011719 277.445312 124.089844 278.183594 122.167969 C 280.550781 115.21875 284.097656 108.863281 288.535156 102.949219 C 291.933594 98.660156 295.335938 93.929688 299.179688 89.34375 L 289.867188 88.902344 C 284.984375 88.753906 273.75 88.605469 267.980469 91.5625 C 267.539062 91.859375 266.945312 91.5625 266.800781 90.972656 C 266.652344 90.824219 266.945312 90.230469 267.09375 90.085938 C 268.722656 88.457031 270.941406 88.015625 273.15625 87.570312 C 280.992188 86.238281 291.789062 87.273438 300.804688 87.570312 C 303.023438 84.910156 305.539062 82.246094 308.050781 79.882812 C 308.496094 79.4375 308.941406 79.289062 309.382812 79.585938 C 309.972656 80.03125 309.53125 80.621094 309.234375 80.917969 C 308.199219 82.097656 307.015625 83.132812 305.980469 84.316406 L 302.875 87.570312 L 304.207031 87.570312 C 313.078125 87.570312 322.097656 87.570312 330.378906 83.429688 C 330.820312 83.132812 331.414062 82.988281 331.707031 83.429688 C 332.152344 84.167969 331.5625 84.761719 331.117188 85.203125 Z M 331.117188 85.203125 " clip-rule="nonzero"/></clipPath><clipPath id="327d43910d"><path d="M 0.644531 0.433594 L 65.960938 0.433594 L 65.960938 51.8125 L 0.644531 51.8125 Z M 0.644531 0.433594 " clip-rule="nonzero"/></clipPath><clipPath id="190ef7676c"><path d="M 65.117188 6.203125 C 63.34375 7.535156 61.421875 8.125 59.351562 8.71875 C 50.921875 10.789062 44.121094 10.789062 35.398438 10.34375 C 27.265625 19.957031 17.359375 34.59375 14.253906 43.910156 C 13.808594 45.089844 13.515625 46.273438 13.21875 47.457031 C 12.925781 48.34375 12.777344 49.230469 13.367188 49.96875 C 14.105469 50.5625 14.992188 50.117188 15.734375 49.675781 C 20.464844 47.308594 24.753906 44.351562 28.746094 41.097656 L 47.226562 26.609375 C 47.816406 26.164062 48.410156 25.425781 49.445312 25.425781 C 49.59375 25.425781 49.738281 25.574219 49.886719 25.574219 C 49.886719 25.722656 50.035156 26.019531 50.035156 26.019531 C 49.886719 26.3125 49.738281 26.757812 49.59375 26.90625 C 48.410156 27.941406 47.226562 28.972656 45.894531 29.863281 C 40.722656 34.148438 35.25 38.289062 30.074219 42.429688 C 26.230469 45.386719 22.238281 48.195312 17.804688 50.414062 C 16.324219 51.152344 14.699219 51.890625 12.925781 51.597656 C 11.59375 51.449219 10.707031 50.414062 10.707031 49.082031 C 10.707031 47.011719 11.445312 45.089844 12.183594 43.167969 C 14.550781 36.21875 18.097656 29.863281 22.535156 23.949219 C 25.933594 19.660156 29.335938 14.929688 33.179688 10.34375 L 23.867188 9.902344 C 18.984375 9.753906 7.75 9.605469 1.980469 12.5625 C 1.539062 12.859375 0.945312 12.5625 0.800781 11.972656 C 0.652344 11.824219 0.945312 11.230469 1.09375 11.085938 C 2.722656 9.457031 4.941406 9.015625 7.15625 8.570312 C 14.992188 7.238281 25.789062 8.273438 34.804688 8.570312 C 37.023438 5.910156 39.539062 3.246094 42.050781 0.882812 C 42.496094 0.4375 42.941406 0.289062 43.382812 0.585938 C 43.972656 1.03125 43.53125 1.621094 43.234375 1.917969 C 42.199219 3.097656 41.015625 4.132812 39.980469 5.316406 L 36.875 8.570312 L 38.207031 8.570312 C 47.078125 8.570312 56.097656 8.570312 64.378906 4.429688 C 64.820312 4.132812 65.414062 3.988281 65.707031 4.429688 C 66.152344 5.167969 65.5625 5.761719 65.117188 6.203125 Z M 65.117188 6.203125 " clip-rule="nonzero"/></clipPath><clipPath id="65684ff2f5"><rect x="0" width="66" y="0" height="52"/></clipPath><clipPath id="6f2a7c58c2"><path d="M 299.351562 97.929688 L 335.96875 97.929688 L 335.96875 128.570312 L 299.351562 128.570312 Z M 299.351562 97.929688 " clip-rule="nonzero"/></clipPath><clipPath id="2737463cf9"><path d="M 1.824219 112.222656 L 195.0625 112.222656 L 195.0625 129.453125 L 1.824219 129.453125 Z M 1.824219 112.222656 " clip-rule="nonzero"/></clipPath><clipPath id="9c38cdd406"><path d="M 195.058594 112.328125 C 194.164062 113.460938 191.625 113.714844 190.191406 113.933594 C 164.769531 117.828125 137.949219 120.648438 112.324219 123.53125 C 94.441406 125.539062 74.390625 128.433594 56.632812 129.363281 C 43.445312 130.054688 15.261719 126.847656 5.078125 118.148438 C 4.558594 117.703125 2.585938 115.867188 2.34375 115.460938 C 1.488281 114.003906 1.792969 112.324219 3.730469 112.824219 C 4.882812 113.117188 10.378906 117.8125 12.679688 118.917969 C 29.683594 127.082031 66.515625 125.183594 85.515625 123.53125 C 118.511719 120.664062 151.386719 115.558594 184.382812 112.742188 C 187.933594 112.441406 191.488281 112.191406 195.058594 112.328125 Z M 195.058594 112.328125 " clip-rule="nonzero"/></clipPath><clipPath id="6725e73262"><path d="M 0.824219 0.222656 L 194.0625 0.222656 L 194.0625 17.453125 L 0.824219 17.453125 Z M 0.824219 0.222656 " clip-rule="nonzero"/></clipPath><clipPath id="6daa366f05"><path d="M 194.058594 0.328125 C 193.164062 1.460938 190.625 1.714844 189.191406 1.933594 C 163.769531 5.828125 136.949219 8.648438 111.324219 11.53125 C 93.441406 13.539062 73.390625 16.433594 55.632812 17.363281 C 42.445312 18.054688 14.261719 14.847656 4.078125 6.148438 C 3.558594 5.703125 1.585938 3.867188 1.34375 3.460938 C 0.488281 2.003906 0.792969 0.324219 2.730469 0.824219 C 3.882812 1.117188 9.378906 5.8125 11.679688 6.917969 C 28.683594 15.082031 65.515625 13.183594 84.515625 11.53125 C 117.511719 8.664062 150.386719 3.558594 183.382812 0.742188 C 186.933594 0.441406 190.488281 0.191406 194.058594 0.328125 Z M 194.058594 0.328125 " clip-rule="nonzero"/></clipPath><clipPath id="1c8eee0c48"><rect x="0" width="195" y="0" height="18"/></clipPath></defs><g clip-path="url(#1955adaa5a)"><path fill="#000000" d="M 177.214844 1.894531 C 142.019531 4.871094 145.675781 94.761719 185.648438 82.988281 C 213.171875 74.878906 212.375 -1.078125 177.214844 1.894531 M 174.609375 0.582031 C 227.667969 -5.496094 228.457031 89.140625 176.382812 85.367188 C 132.5625 82.191406 132.398438 5.421875 174.609375 0.582031 " fill-opacity="1" fill-rule="nonzero"/></g><g clip-path="url(#4270e73344)"><path fill="#000000" d="M 263.136719 1.855469 C 231.949219 4.890625 231.71875 75.644531 259.390625 83.082031 C 300.203125 94.050781 302.101562 -1.9375 263.136719 1.855469 M 261.203125 0.566406 C 311.519531 -4.773438 314.550781 81.996094 268.125 85.335938 C 219.210938 88.855469 216.183594 5.34375 261.203125 0.566406 " fill-opacity="1" fill-rule="nonzero"/></g><g clip-path="url(#5eaed90b3a)"><path fill="#000000" d="M 98.101562 33.574219 C 93.972656 34.136719 89.074219 36.449219 85.617188 38.710938 C 83.078125 40.371094 79.246094 42.828125 79.207031 46.019531 C 79.132812 52.226562 80.480469 64.152344 82.519531 70.007812 C 89.195312 89.160156 113.441406 88.117188 118.738281 68.871094 C 122.964844 53.507812 118.859375 30.757812 98.101562 33.574219 M 127.066406 13.332031 L 119.21875 16.578125 C 115.976562 7.09375 108.3125 -0.667969 97.460938 2.519531 C 83.574219 6.597656 79.5625 28.828125 79.933594 41.175781 C 87.394531 35.453125 95.292969 30.917969 105.160156 31.445312 C 139.234375 33.269531 140.453125 81.796875 104.398438 85.117188 C 69.242188 88.355469 62.925781 49.117188 72.238281 23.539062 C 79.824219 2.695312 103.210938 -7.789062 121.835938 7.183594 C 122.75 7.914062 127.652344 12.535156 127.066406 13.332031 " fill-opacity="1" fill-rule="nonzero"/></g><g clip-path="url(#e99946e7ac)"><g clip-path="url(#d33e094f02)"><g transform="matrix(1, 0, 0, 1, 0.000000000000000056, -0.000000000000023296)"><g clip-path="url(#bbbb2ff202)"><g clip-path="url(#350ba21842)"><g clip-path="url(#2ea70bafd4)"><path fill="#000000" d="M 0.445312 -0.0703125 L 59.0625 -0.0703125 L 59.0625 83.464844 L 0.445312 83.464844 Z M 0.445312 -0.0703125 " fill-opacity="1" fill-rule="nonzero"/></g></g></g></g></g></g><g clip-path="url(#f0218847b9)"><path fill="#000000" d="M 219.460938 82.566406 C 219.90625 81.679688 220.054688 80.496094 220.203125 79.609375 C 220.355469 78.871094 219.460938 78.28125 218.71875 78.429688 C 216.636719 79.316406 215.003906 80.941406 213.519531 82.566406 C 208.613281 87.734375 204.75 93.644531 201.1875 99.847656 C 209.507812 96.449219 215.449219 90.394531 219.460938 82.566406 M 185.433594 137.074219 C 189.445312 133.085938 191.527344 128.210938 191.675781 123.039062 C 191.527344 121.710938 191.527344 120.824219 191.527344 119.9375 C 191.378906 119.347656 191.527344 118.460938 190.636719 118.3125 C 189.742188 118.019531 189.445312 118.757812 189.148438 119.347656 C 186.773438 123.925781 184.988281 128.800781 183.652344 133.824219 C 183.503906 134.5625 183.355469 135.152344 183.355469 135.890625 C 183.355469 136.484375 183.207031 137.367188 184.097656 137.515625 C 184.542969 137.515625 185.136719 137.367188 185.433594 137.074219 M 180.976562 137.367188 C 180.679688 135.449219 181.125 133.675781 181.71875 131.757812 C 183.652344 125.109375 186.472656 118.757812 190.042969 112.847656 C 194.648438 105.019531 199.253906 97.335938 204.601562 90.097656 C 207.128906 86.703125 209.507812 83.304688 212.625 80.496094 C 214.113281 79.167969 215.746094 77.839844 217.828125 77.101562 C 219.164062 76.507812 220.5 76.359375 221.691406 77.394531 C 222.878906 78.429688 222.878906 79.90625 222.433594 81.234375 C 221.839844 83.304688 220.796875 85.078125 219.609375 86.847656 C 215.746094 92.464844 210.992188 97.191406 204.898438 100.441406 C 204.007812 100.882812 203.265625 101.324219 202.523438 101.621094 C 197.175781 104.574219 196.726562 105.019531 193.90625 112.109375 C 199.105469 111.519531 203.5625 110.335938 208.167969 109.007812 C 212.476562 107.824219 216.636719 105.460938 221.394531 104.429688 C 220.949219 106.347656 219.757812 106.347656 218.867188 106.644531 C 211.585938 109.746094 204.15625 111.960938 196.429688 113.144531 C 195.6875 113.289062 194.945312 113.289062 194.351562 113.4375 C 193.308594 113.585938 192.714844 114.324219 193.011719 115.359375 C 193.757812 118.019531 194.054688 120.824219 193.90625 123.484375 C 193.757812 128.800781 191.675781 133.234375 188.257812 137.074219 C 186.921875 138.550781 185.285156 139.585938 183.207031 139.289062 C 182.015625 139.289062 181.273438 138.550781 180.976562 137.367188 " fill-opacity="1" fill-rule="nonzero"/></g><g clip-path="url(#722ea2588d)"><path fill="#000000" d="M 260.230469 72.628906 C 259.640625 71.746094 258.605469 72.039062 257.863281 72.480469 C 256.386719 73.214844 254.757812 73.949219 253.28125 74.832031 C 243.664062 80.707031 235.234375 88.050781 228.132812 96.867188 C 227.246094 98.039062 226.210938 99.070312 225.765625 100.683594 C 226.507812 100.539062 227.097656 100.683594 227.691406 100.390625 C 237.453125 94.957031 246.917969 88.785156 254.90625 81 C 256.828125 79.089844 258.457031 77.179688 259.789062 74.976562 C 260.230469 74.242188 260.824219 73.363281 260.230469 72.628906 M 262.894531 73.363281 C 262.449219 74.976562 261.5625 76.152344 260.675781 77.476562 C 258.457031 80.414062 255.941406 82.910156 253.132812 85.261719 C 244.847656 92.3125 235.53125 98.1875 225.765625 103.035156 C 223.550781 104.210938 221.921875 105.679688 220.886719 108.03125 C 218.519531 112.582031 216.152344 117.136719 214.96875 122.277344 C 214.527344 124.042969 214.082031 125.804688 215.5625 127.125 C 217.039062 128.59375 218.816406 128.007812 220.441406 127.421875 C 225.472656 125.65625 230.058594 122.71875 234.347656 119.488281 C 240.558594 114.785156 246.917969 110.234375 253.132812 105.679688 C 254.316406 104.945312 255.203125 103.183594 257.125 104.210938 C 256.828125 105.828125 255.351562 106.265625 254.316406 107 C 248.101562 111.703125 241.742188 116.257812 235.53125 120.957031 C 231.386719 124.042969 226.949219 126.683594 221.921875 128.449219 C 219.851562 129.183594 217.78125 130.0625 215.414062 129.183594 C 213.046875 128.15625 212.011719 126.832031 212.160156 124.042969 C 212.601562 120.957031 213.640625 117.726562 214.96875 114.492188 C 219.257812 105.238281 224.734375 96.71875 231.980469 89.375 C 237.601562 83.9375 243.515625 78.796875 250.171875 74.683594 C 252.097656 73.507812 254.316406 72.480469 256.535156 71.453125 C 258.011719 70.570312 259.492188 70.570312 261.117188 70.71875 C 262.449219 70.863281 263.1875 72.1875 262.894531 73.363281 " fill-opacity="1" fill-rule="nonzero"/></g><g clip-path="url(#492c3b843f)"><path fill="#000000" d="M 254.429688 113.476562 C 257.835938 111.667969 260.503906 108.960938 263.171875 106.253906 C 263.46875 105.800781 263.617188 105.199219 263.765625 104.898438 C 263.765625 103.242188 261.835938 101.886719 260.355469 102.640625 C 256.355469 104.597656 254.132812 107.90625 252.945312 112.269531 C 252.796875 112.574219 253.09375 113.171875 253.390625 113.476562 C 253.539062 113.625 254.132812 113.625 254.429688 113.476562 M 264.355469 112.421875 C 264.355469 111.367188 264.503906 110.164062 264.800781 107.90625 C 262.429688 109.863281 260.800781 111.21875 259.316406 112.574219 C 257.6875 113.925781 255.910156 114.980469 253.835938 115.582031 C 251.613281 116.332031 249.835938 114.828125 250.277344 112.722656 C 251.316406 107.605469 253.984375 103.695312 258.726562 101.4375 C 260.355469 100.683594 262.28125 100.535156 263.765625 101.4375 C 265.394531 102.339844 266.578125 102.488281 268.058594 101.585938 C 268.800781 101.136719 269.542969 102.039062 269.246094 103.09375 C 268.652344 105.5 267.765625 107.90625 267.171875 110.164062 C 266.726562 111.367188 266.578125 112.574219 267.023438 113.777344 C 267.46875 115.28125 268.800781 116.183594 270.285156 115.582031 C 271.46875 115.128906 272.804688 114.378906 273.988281 113.777344 C 278.878906 111.21875 279.914062 110.617188 284.214844 107.003906 L 288.066406 104.296875 C 288.214844 104.144531 288.808594 104.296875 288.957031 104.445312 C 289.105469 104.597656 289.105469 105.046875 288.957031 105.351562 C 288.957031 105.648438 288.660156 105.949219 288.363281 106.253906 C 283.027344 110.617188 280.953125 112.121094 274.730469 115.429688 C 273.097656 116.183594 271.320312 117.085938 269.394531 117.085938 C 266.136719 117.238281 264.355469 115.582031 264.355469 112.421875 " fill-opacity="1" fill-rule="nonzero"/></g><g clip-path="url(#bab3309f91)"><g clip-path="url(#dd70fe0479)"><g transform="matrix(1, 0, 0, 1, 266, 79)"><g clip-path="url(#65684ff2f5)"><g clip-path="url(#327d43910d)"><g clip-path="url(#190ef7676c)"><path fill="#000000" d="M 0.757812 0.433594 L 65.785156 0.433594 L 65.785156 51.664062 L 0.757812 51.664062 Z M 0.757812 0.433594 " fill-opacity="1" fill-rule="nonzero"/></g></g></g></g></g></g><g clip-path="url(#6f2a7c58c2)"><path fill="#000000" d="M 311.679688 115.703125 C 307.414062 116.898438 304.765625 120.03125 302.265625 123.46875 C 301.96875 123.914062 301.675781 124.664062 301.675781 125.410156 C 301.675781 125.855469 301.820312 126.453125 302.265625 126.753906 C 302.558594 126.902344 303.292969 127.050781 303.734375 126.753906 C 304.46875 126.453125 305.207031 125.855469 305.796875 125.257812 C 308.296875 122.421875 310.648438 119.585938 311.679688 115.703125 M 335.957031 104.5 C 334.925781 105.546875 333.75 105.695312 332.71875 106.144531 C 328.160156 107.9375 323.597656 109.578125 319.183594 111.371094 C 316.976562 112.117188 315.359375 113.460938 314.476562 115.703125 C 313.152344 118.988281 311.238281 121.972656 309.03125 124.664062 C 307.707031 126.304688 306.238281 127.648438 304.175781 128.246094 C 302.410156 128.84375 300.644531 128.394531 299.910156 127.351562 C 299.027344 126.007812 299.320312 124.664062 299.910156 123.320312 C 301.382812 120.480469 303.734375 118.390625 306.238281 116.597656 C 308.003906 115.402344 309.769531 114.359375 311.53125 113.3125 C 312.855469 112.566406 313.742188 111.671875 314.035156 110.175781 C 314.621094 107.9375 315.0625 105.695312 315.800781 103.605469 C 316.242188 102.113281 316.683594 100.617188 317.417969 99.273438 C 317.710938 98.378906 318.449219 97.929688 319.476562 97.929688 C 320.214844 97.929688 320.800781 98.078125 321.097656 98.828125 C 321.390625 99.425781 321.097656 100.019531 320.507812 100.019531 C 319.332031 100.320312 318.742188 101.066406 318.449219 102.113281 C 318.007812 104.203125 317.417969 106.144531 317.125 108.234375 C 316.683594 109.878906 317.417969 110.324219 319.183594 109.726562 L 333.601562 104.351562 C 334.335938 104.054688 334.925781 103.902344 335.957031 104.5 " fill-opacity="1" fill-rule="nonzero"/></g><g clip-path="url(#2737463cf9)"><g clip-path="url(#9c38cdd406)"><g transform="matrix(1, 0, 0, 1, 1, 112)"><g clip-path="url(#1c8eee0c48)"><g clip-path="url(#6725e73262)"><g clip-path="url(#6daa366f05)"><path fill="#000000" d="M 0.890625 0.289062 L 194.0625 0.289062 L 194.0625 17.453125 L 0.890625 17.453125 Z M 0.890625 0.289062 " fill-opacity="1" fill-rule="nonzero"/></g></g></g></g></g></g></svg>