<svg xmlns="http://www.w3.org/2000/svg" xmlns:xlink="http://www.w3.org/1999/xlink" width="154" zoomAndPan="magnify" viewBox="0 0 115.5 361.499992" height="482" preserveAspectRatio="xMidYMid meet" version="1.0"><defs><clipPath id="701ec6aaa9"><path d="M 0 190.660156 L 63.449219 190.660156 L 63.449219 266.085938 L 0 266.085938 Z M 0 190.660156 " clip-rule="nonzero"/></clipPath><clipPath id="aadc327c1a"><path d="M 0 285.328125 L 63.449219 285.328125 L 63.449219 360.472656 L 0 360.472656 Z M 0 285.328125 " clip-rule="nonzero"/></clipPath><clipPath id="ea497ef2c0"><path d="M 4.25 95.761719 L 59.511719 95.761719 L 59.511719 171.933594 L 4.25 171.933594 Z M 4.25 95.761719 " clip-rule="nonzero"/></clipPath><clipPath id="2c2f671c8e"><path d="M 6.988281 0.53125 L 59.304688 0.53125 L 59.304688 74.265625 L 6.988281 74.265625 Z M 6.988281 0.53125 " clip-rule="nonzero"/></clipPath><clipPath id="de99be252d"><path d="M 6.988281 74.089844 C 8.109375 66.953125 12.734375 59.160156 17.449219 53.730469 C 27.882812 41.703125 58.1875 28.976562 44.765625 8.339844 C 32.78125 -10.085938 -0.667969 13.722656 23.492188 26.636719 C 25.488281 28.039062 19.867188 32.105469 18.855469 33.082031 C 2.421875 23.46875 6.355469 5.308594 24.773438 1.3125 C 50.683594 -4.3125 70.285156 18.878906 45.78125 37.496094 C 33.21875 47.039062 15.5 51.183594 9.839844 68.394531 C 26.371094 68.046875 43.234375 70.121094 59.144531 64.613281 L 55.351562 74.089844 Z M 6.988281 74.089844 " clip-rule="nonzero"/></clipPath><clipPath id="9c394809dd"><path d="M 0.988281 0.53125 L 53.304688 0.53125 L 53.304688 74.132812 L 0.988281 74.132812 Z M 0.988281 0.53125 " clip-rule="nonzero"/></clipPath><clipPath id="4153b661af"><path d="M 0.988281 74.089844 C 2.109375 66.953125 6.734375 59.160156 11.449219 53.730469 C 21.882812 41.703125 52.1875 28.976562 38.765625 8.339844 C 26.78125 -10.085938 -6.667969 13.722656 17.492188 26.636719 C 19.488281 28.039062 13.867188 32.105469 12.855469 33.082031 C -3.578125 23.46875 0.355469 5.308594 18.773438 1.3125 C 44.683594 -4.3125 64.285156 18.878906 39.78125 37.496094 C 27.21875 47.039062 9.5 51.183594 3.839844 68.394531 C 20.371094 68.046875 37.234375 70.121094 53.144531 64.613281 L 49.351562 74.089844 Z M 0.988281 74.089844 " clip-rule="nonzero"/></clipPath><clipPath id="071d134ad6"><rect x="0" width="54" y="0" height="75"/></clipPath><clipPath id="2e515f6cff"><path d="M 80.628906 4.535156 L 112 4.535156 L 112 45.992188 L 80.628906 45.992188 Z M 80.628906 4.535156 " clip-rule="nonzero"/></clipPath><clipPath id="4e1b851cff"><path d="M 86.609375 7.070312 L 86.609375 8.929688 L 86.613281 8.929688 L 86.613281 25.457031 L 99.78125 25.457031 C 99.78125 25.457031 97.914062 28.023438 97.882812 27.992188 L 86.609375 27.992188 L 86.609375 45.9375 L 80.628906 45.9375 L 80.628906 4.539062 L 81.988281 4.535156 L 111.933594 4.535156 L 108.675781 7.070312 Z M 86.609375 7.070312 " clip-rule="nonzero"/></clipPath><clipPath id="1d4f7f14ff"><path d="M 0.628906 0.535156 L 32 0.535156 L 32 41.992188 L 0.628906 41.992188 Z M 0.628906 0.535156 " clip-rule="nonzero"/></clipPath><clipPath id="670fefaf26"><path d="M 6.609375 3.070312 L 6.609375 4.929688 L 6.613281 4.929688 L 6.613281 21.457031 L 19.78125 21.457031 C 19.78125 21.457031 17.914062 24.023438 17.882812 23.992188 L 6.609375 23.992188 L 6.609375 41.9375 L 0.628906 41.9375 L 0.628906 0.539062 L 1.988281 0.535156 L 31.933594 0.535156 L 28.675781 3.070312 Z M 6.609375 3.070312 " clip-rule="nonzero"/></clipPath><clipPath id="180d93d888"><rect x="0" width="32" y="0" height="42"/></clipPath><clipPath id="3dc1be140d"><path d="M 80.621094 82.25 L 108.320312 82.25 L 108.320312 123.742188 L 80.621094 123.742188 Z M 80.621094 82.25 " clip-rule="nonzero"/></clipPath><clipPath id="6c35a3d06f"><path d="M 86.867188 121.109375 L 108.210938 121.109375 C 108.210938 121.109375 106.046875 123.59375 105.996094 123.648438 L 80.621094 123.648438 L 80.621094 84.710938 L 80.644531 82.25 L 84.59375 82.25 L 84.589844 82.253906 L 86.867188 82.253906 Z M 86.867188 121.109375 " clip-rule="nonzero"/></clipPath><clipPath id="cd68732948"><path d="M 0.621094 0.25 L 28.25 0.25 L 28.25 41.742188 L 0.621094 41.742188 Z M 0.621094 0.25 " clip-rule="nonzero"/></clipPath><clipPath id="6a10a16658"><path d="M 6.867188 39.109375 L 28.210938 39.109375 C 28.210938 39.109375 26.046875 41.59375 25.996094 41.648438 L 0.621094 41.648438 L 0.621094 2.710938 L 0.644531 0.25 L 4.59375 0.25 L 4.589844 0.253906 L 6.867188 0.253906 Z M 6.867188 39.109375 " clip-rule="nonzero"/></clipPath><clipPath id="308f6daab3"><rect x="0" width="29" y="0" height="42"/></clipPath><clipPath id="44d3b3c95b"><path d="M 76.96875 159.945312 L 115.003906 159.945312 L 115.003906 201 L 76.96875 201 Z M 76.96875 159.945312 " clip-rule="nonzero"/></clipPath><clipPath id="608b695e2b"><path d="M 75.757812 237.382812 L 112.796875 237.382812 L 112.796875 279 L 75.757812 279 Z M 75.757812 237.382812 " clip-rule="nonzero"/></clipPath><clipPath id="2d65a850dd"><path d="M 112.796875 237.527344 L 111.976562 240.0625 L 97.492188 240.0625 L 97.492188 278.929688 L 91.230469 278.929688 L 91.230469 240.0625 L 76.75 240.0625 L 75.902344 237.527344 Z M 112.796875 237.527344 " clip-rule="nonzero"/></clipPath><clipPath id="7ac69cd012"><path d="M 0.757812 0.382812 L 37.796875 0.382812 L 37.796875 42 L 0.757812 42 Z M 0.757812 0.382812 " clip-rule="nonzero"/></clipPath><clipPath id="2293da0282"><path d="M 37.796875 0.527344 L 36.976562 3.0625 L 22.492188 3.0625 L 22.492188 41.929688 L 16.230469 41.929688 L 16.230469 3.0625 L 1.75 3.0625 L 0.902344 0.527344 Z M 37.796875 0.527344 " clip-rule="nonzero"/></clipPath><clipPath id="64d86512ff"><rect x="0" width="38" y="0" height="42"/></clipPath><clipPath id="b8eaeb1f4d"><path d="M 78.8125 315.277344 L 110.65625 315.277344 L 110.65625 357.816406 L 78.8125 357.816406 Z M 78.8125 315.277344 " clip-rule="nonzero"/></clipPath><clipPath id="6a44da4956"><path d="M 110.65625 346.933594 C 110.65625 354.828125 102.410156 357.699219 94.742188 357.699219 C 86.703125 357.699219 80.921875 354.359375 79.296875 347.75 L 83.28125 346.953125 C 84.269531 351.355469 87.519531 355.191406 95.800781 355.191406 C 100.789062 355.191406 105.09375 352.179688 105.128906 347.546875 C 105.164062 342.976562 100.164062 341.378906 92.941406 338.765625 C 86.558594 336.457031 78.8125 334 78.8125 326.3125 C 78.8125 322.085938 83.214844 315.402344 93.65625 315.402344 C 100.683594 315.402344 106.054688 318.027344 109.277344 323.011719 L 105.582031 324.390625 C 103.105469 320.566406 99.191406 317.554688 93.773438 317.554688 C 84.882812 317.554688 83.71875 323.875 84.234375 326.105469 C 85.179688 330.199219 89.574219 331.257812 96.527344 333.773438 C 103.117188 336.15625 110.65625 339.925781 110.65625 346.933594 Z M 110.65625 346.933594 " clip-rule="nonzero"/></clipPath><clipPath id="4acc6d4df4"><path d="M 0.8125 0.277344 L 32.65625 0.277344 L 32.65625 42.785156 L 0.8125 42.785156 Z M 0.8125 0.277344 " clip-rule="nonzero"/></clipPath><clipPath id="0af9da4475"><path d="M 32.65625 31.933594 C 32.65625 39.828125 24.410156 42.699219 16.742188 42.699219 C 8.703125 42.699219 2.921875 39.359375 1.296875 32.75 L 5.28125 31.953125 C 6.269531 36.355469 9.519531 40.191406 17.800781 40.191406 C 22.789062 40.191406 27.09375 37.179688 27.128906 32.546875 C 27.164062 27.976562 22.164062 26.378906 14.941406 23.765625 C 8.558594 21.457031 0.8125 19 0.8125 11.3125 C 0.8125 7.085938 5.214844 0.402344 15.65625 0.402344 C 22.683594 0.402344 28.054688 3.027344 31.277344 8.011719 L 27.582031 9.390625 C 25.105469 5.566406 21.191406 2.554688 15.773438 2.554688 C 6.882812 2.554688 5.71875 8.875 6.234375 11.105469 C 7.179688 15.199219 11.574219 16.257812 18.527344 18.773438 C 25.117188 21.15625 32.65625 24.925781 32.65625 31.933594 Z M 32.65625 31.933594 " clip-rule="nonzero"/></clipPath><clipPath id="1095f1a905"><rect x="0" width="33" y="0" height="43"/></clipPath></defs><g clip-path="url(#701ec6aaa9)"><path fill="#000000" d="M 27.519531 192.59375 C 2.023438 196.996094 0.242188 268.949219 35.714844 264.027344 C 61.8125 260.402344 62.429688 186.5625 27.519531 192.59375 M 30.441406 190.703125 C 72.792969 188.632812 75.0625 264.535156 32.988281 266.042969 C -9.707031 267.574219 -11.449219 192.75 30.441406 190.703125 " fill-opacity="1" fill-rule="nonzero"/></g><g clip-path="url(#aadc327c1a)"><path fill="#000000" d="M 27.519531 287.257812 C 2.023438 291.664062 0.242188 363.617188 35.714844 358.695312 C 61.8125 355.070312 62.429688 281.230469 27.519531 287.257812 M 30.441406 285.371094 C 72.792969 283.300781 75.0625 359.203125 32.988281 360.710938 C -9.707031 362.242188 -11.449219 287.417969 30.441406 285.371094 " fill-opacity="1" fill-rule="nonzero"/></g><g clip-path="url(#ea497ef2c0)"><path fill="#000000" d="M 32.441406 125.453125 C 26.121094 125.785156 16.804688 130.550781 13.691406 136.105469 C 15.292969 140.4375 14.117188 144.976562 14.679688 149.375 C 16.34375 162.308594 22.554688 173 37.449219 169.53125 C 54.542969 165.550781 54.949219 124.273438 32.441406 125.453125 M 55.445312 108.105469 L 48.808594 110.972656 C 46.789062 104.191406 42.617188 98.183594 34.988281 97.632812 C 19.214844 96.5 13.800781 119.589844 14.574219 131.894531 C 31.804688 117.050781 60.730469 123.515625 59.285156 149.523438 C 57.914062 174.1875 19.496094 180.230469 8.691406 158.222656 C -1.488281 137.488281 5.378906 95.972656 34.054688 95.765625 C 41.703125 95.710938 52.566406 100.683594 55.445312 108.105469 " fill-opacity="1" fill-rule="nonzero"/></g><g clip-path="url(#2c2f671c8e)"><g clip-path="url(#de99be252d)"><g transform="matrix(1, 0, 0, 1, 6, 0.000000000000026978)"><g clip-path="url(#071d134ad6)"><g clip-path="url(#9c394809dd)"><g clip-path="url(#4153b661af)"><path fill="#000000" d="M 0.988281 0.453125 L 53.125 0.453125 L 53.125 74.089844 L 0.988281 74.089844 Z M 0.988281 0.453125 " fill-opacity="1" fill-rule="nonzero"/></g></g></g></g></g></g><g clip-path="url(#2e515f6cff)"><g clip-path="url(#4e1b851cff)"><g transform="matrix(1, 0, 0, 1, 80, 4)"><g clip-path="url(#180d93d888)"><g clip-path="url(#1d4f7f14ff)"><g clip-path="url(#670fefaf26)"><path fill="#000000" d="M 0.628906 0.535156 L 31.933594 0.535156 L 31.933594 41.992188 L 0.628906 41.992188 Z M 0.628906 0.535156 " fill-opacity="1" fill-rule="nonzero"/></g></g></g></g></g></g><g clip-path="url(#3dc1be140d)"><g clip-path="url(#6c35a3d06f)"><g transform="matrix(1, 0, 0, 1, 80, 82)"><g clip-path="url(#308f6daab3)"><g clip-path="url(#cd68732948)"><g clip-path="url(#6a10a16658)"><path fill="#000000" d="M 0.621094 0.25 L 28.210938 0.25 L 28.210938 41.636719 L 0.621094 41.636719 Z M 0.621094 0.25 " fill-opacity="1" fill-rule="nonzero"/></g></g></g></g></g></g><g clip-path="url(#44d3b3c95b)"><path fill="#000000" d="M 84.40625 189.554688 L 104.339844 189.554688 L 103.804688 188.113281 L 94.449219 164.726562 L 84.5625 189.136719 Z M 115.710938 200.851562 L 108.835938 200.851562 L 108.539062 200.144531 L 105.941406 193.566406 L 105.304688 192.070312 L 83.386719 192.070312 L 82.742188 193.566406 L 80.035156 200.140625 L 79.753906 200.847656 L 76.96875 200.847656 L 77.554688 199.402344 L 92.824219 162.308594 L 93.757812 159.949219 L 99.375 159.949219 L 99.660156 160.652344 L 115.144531 199.40625 Z M 115.710938 200.851562 " fill-opacity="1" fill-rule="nonzero"/></g><g clip-path="url(#608b695e2b)"><g clip-path="url(#2d65a850dd)"><g transform="matrix(1, 0, 0, 1, 75, 237)"><g clip-path="url(#64d86512ff)"><g clip-path="url(#7ac69cd012)"><g clip-path="url(#2293da0282)"><path fill="#000000" d="M 0.902344 0.527344 L 37.796875 0.527344 L 37.796875 41.890625 L 0.902344 41.890625 Z M 0.902344 0.527344 " fill-opacity="1" fill-rule="nonzero"/></g></g></g></g></g></g><g clip-path="url(#b8eaeb1f4d)"><g clip-path="url(#6a44da4956)"><g transform="matrix(1, 0, 0, 1, 78, 315)"><g clip-path="url(#1095f1a905)"><g clip-path="url(#4acc6d4df4)"><g clip-path="url(#0af9da4475)"><path fill="#000000" d="M 0.8125 0.402344 L 32.65625 0.402344 L 32.65625 42.691406 L 0.8125 42.691406 Z M 0.8125 0.402344 " fill-opacity="1" fill-rule="nonzero"/></g></g></g></g></g></g></svg>