<svg xmlns="http://www.w3.org/2000/svg" xmlns:xlink="http://www.w3.org/1999/xlink" width="449" zoomAndPan="magnify" viewBox="0 0 336.75 165.000002" height="220" preserveAspectRatio="xMidYMid meet" version="1.0"><defs><clipPath id="bf994ac394"><path d="M 143.292969 0.296875 L 214.859375 0.296875 L 214.859375 85.28125 L 143.292969 85.28125 Z M 143.292969 0.296875 " clip-rule="nonzero"/></clipPath><clipPath id="ac674bbba8"><path d="M 229.191406 0.324219 L 300.757812 0.324219 L 300.757812 85.308594 L 229.191406 85.308594 Z M 229.191406 0.324219 " clip-rule="nonzero"/></clipPath><clipPath id="fc1e543dfa"><path d="M 68.617188 0.132812 L 131.238281 0.132812 L 131.238281 85.117188 L 68.617188 85.117188 Z M 68.617188 0.132812 " clip-rule="nonzero"/></clipPath><clipPath id="5e44720018"><path d="M 0.890625 0 L 59.507812 0 L 59.507812 83.4375 L 0.890625 83.4375 Z M 0.890625 0 " clip-rule="nonzero"/></clipPath><clipPath id="35a493dbf8"><path d="M 0.855469 83.257812 C 3.398438 72.039062 10.59375 62.035156 19.050781 54.421875 C 30.996094 43.667969 48.828125 36.671875 47.042969 17.476562 C 44.882812 -5.710938 7.707031 -1.609375 10.667969 20.039062 C 11.355469 25.0625 16.066406 28.605469 20.625 30.109375 C 21.453125 30.304688 20.996094 30.96875 20.695312 31.441406 C 20.304688 32.054688 15.25 37.078125 14.839844 37.105469 C 1.273438 30.152344 -2.257812 13.136719 12.109375 4.746094 C 40.960938 -12.105469 79.84375 18.710938 41.757812 44.007812 C 27.511719 53.472656 10.042969 59.195312 4.109375 77.425781 C 5.023438 78.238281 15.933594 76.808594 18.058594 76.753906 C 32.09375 76.390625 45.871094 78.003906 59.363281 72.894531 L 56.117188 83.257812 Z M 0.855469 83.257812 " clip-rule="nonzero"/></clipPath><clipPath id="a532109965"><path d="M 0.890625 0 L 59.507812 0 L 59.507812 83.4375 L 0.890625 83.4375 Z M 0.890625 0 " clip-rule="nonzero"/></clipPath><clipPath id="b6bc38f5a0"><path d="M 0.855469 83.257812 C 3.398438 72.039062 10.59375 62.035156 19.050781 54.421875 C 30.996094 43.667969 48.828125 36.671875 47.042969 17.476562 C 44.882812 -5.710938 7.707031 -1.609375 10.667969 20.039062 C 11.355469 25.0625 16.066406 28.605469 20.625 30.109375 C 21.453125 30.304688 20.996094 30.96875 20.695312 31.441406 C 20.304688 32.054688 15.25 37.078125 14.839844 37.105469 C 1.273438 30.152344 -2.257812 13.136719 12.109375 4.746094 C 40.960938 -12.105469 79.84375 18.710938 41.757812 44.007812 C 27.511719 53.472656 10.042969 59.195312 4.109375 77.425781 C 5.023438 78.238281 15.933594 76.808594 18.058594 76.753906 C 32.09375 76.390625 45.871094 78.003906 59.363281 72.894531 L 56.117188 83.257812 Z M 0.855469 83.257812 " clip-rule="nonzero"/></clipPath><clipPath id="f5a2bd0744"><rect x="0" width="60" y="0" height="84"/></clipPath><clipPath id="c89f90e573"><path d="M 180.851562 76.445312 L 222.597656 76.445312 L 222.597656 139 L 180.851562 139 Z M 180.851562 76.445312 " clip-rule="nonzero"/></clipPath><clipPath id="e0f22ae544"><path d="M 212.039062 70.464844 L 262.730469 70.464844 L 262.730469 129.359375 L 212.039062 129.359375 Z M 212.039062 70.464844 " clip-rule="nonzero"/></clipPath><clipPath id="bcfcd566fe"><path d="M 250.007812 100.566406 L 288.773438 100.566406 L 288.773438 116.96875 L 250.007812 116.96875 Z M 250.007812 100.566406 " clip-rule="nonzero"/></clipPath><clipPath id="867601d943"><path d="M 266.339844 79.238281 L 331.558594 79.238281 L 331.558594 130.519531 L 266.339844 130.519531 Z M 266.339844 79.238281 " clip-rule="nonzero"/></clipPath><clipPath id="652fd11604"><path d="M 330.714844 84.996094 C 328.945312 86.320312 327.03125 86.914062 324.964844 87.503906 C 316.558594 89.566406 309.773438 89.566406 301.070312 89.125 C 292.957031 98.710938 283.078125 113.3125 279.980469 122.605469 C 279.535156 123.785156 279.242188 124.964844 278.945312 126.144531 C 278.652344 127.03125 278.503906 127.914062 279.09375 128.652344 C 279.832031 129.242188 280.714844 128.800781 281.453125 128.359375 C 286.175781 125.996094 290.453125 123.046875 294.433594 119.804688 L 312.871094 105.347656 C 313.460938 104.90625 314.050781 104.167969 315.082031 104.167969 C 315.230469 104.167969 315.378906 104.316406 315.523438 104.316406 C 315.523438 104.464844 315.671875 104.757812 315.671875 104.757812 C 315.523438 105.054688 315.378906 105.496094 315.230469 105.644531 C 314.050781 106.675781 312.871094 107.707031 311.542969 108.59375 C 306.378906 112.871094 300.921875 117 295.761719 121.132812 C 291.925781 124.082031 287.945312 126.882812 283.519531 129.09375 C 282.042969 129.832031 280.421875 130.570312 278.652344 130.273438 C 277.324219 130.128906 276.4375 129.09375 276.4375 127.769531 C 276.4375 125.703125 277.175781 123.785156 277.914062 121.867188 C 280.273438 114.933594 283.8125 108.59375 288.238281 102.695312 C 291.628906 98.417969 295.023438 93.695312 298.859375 89.125 L 289.566406 88.683594 C 284.699219 88.535156 273.488281 88.386719 267.738281 91.335938 C 267.292969 91.632812 266.703125 91.335938 266.558594 90.746094 C 266.410156 90.597656 266.703125 90.011719 266.851562 89.863281 C 268.476562 88.238281 270.6875 87.796875 272.898438 87.355469 C 280.714844 86.027344 291.484375 87.058594 300.480469 87.355469 C 302.691406 84.699219 305.199219 82.046875 307.707031 79.683594 C 308.148438 79.242188 308.59375 79.09375 309.035156 79.390625 C 309.625 79.832031 309.183594 80.421875 308.886719 80.71875 C 307.855469 81.898438 306.675781 82.929688 305.644531 84.109375 L 302.546875 87.355469 L 303.875 87.355469 C 312.722656 87.355469 321.71875 87.355469 329.980469 83.222656 C 330.421875 82.929688 331.011719 82.78125 331.308594 83.222656 C 331.75 83.960938 331.160156 84.550781 330.714844 84.996094 Z M 330.714844 84.996094 " clip-rule="nonzero"/></clipPath><clipPath id="93c4790caf"><path d="M 0.402344 0.238281 L 65.558594 0.238281 L 65.558594 51.488281 L 0.402344 51.488281 Z M 0.402344 0.238281 " clip-rule="nonzero"/></clipPath><clipPath id="9701c68286"><path d="M 64.714844 5.996094 C 62.945312 7.320312 61.03125 7.914062 58.964844 8.503906 C 50.558594 10.566406 43.773438 10.566406 35.070312 10.125 C 26.957031 19.710938 17.078125 34.3125 13.980469 43.605469 C 13.535156 44.785156 13.242188 45.964844 12.945312 47.144531 C 12.652344 48.03125 12.503906 48.914062 13.09375 49.652344 C 13.832031 50.242188 14.714844 49.800781 15.453125 49.359375 C 20.175781 46.996094 24.453125 44.046875 28.433594 40.804688 L 46.871094 26.347656 C 47.460938 25.90625 48.050781 25.167969 49.082031 25.167969 C 49.230469 25.167969 49.378906 25.316406 49.523438 25.316406 C 49.523438 25.464844 49.671875 25.757812 49.671875 25.757812 C 49.523438 26.054688 49.378906 26.496094 49.230469 26.644531 C 48.050781 27.675781 46.871094 28.707031 45.542969 29.59375 C 40.378906 33.871094 34.921875 38 29.761719 42.132812 C 25.925781 45.082031 21.945312 47.882812 17.519531 50.09375 C 16.042969 50.832031 14.421875 51.570312 12.652344 51.273438 C 11.324219 51.128906 10.4375 50.09375 10.4375 48.769531 C 10.4375 46.703125 11.175781 44.785156 11.914062 42.867188 C 14.273438 35.933594 17.8125 29.59375 22.238281 23.695312 C 25.628906 19.417969 29.023438 14.695312 32.859375 10.125 L 23.566406 9.683594 C 18.699219 9.535156 7.488281 9.386719 1.738281 12.335938 C 1.292969 12.632812 0.703125 12.335938 0.558594 11.746094 C 0.410156 11.597656 0.703125 11.011719 0.851562 10.863281 C 2.476562 9.238281 4.6875 8.796875 6.898438 8.355469 C 14.714844 7.027344 25.484375 8.058594 34.480469 8.355469 C 36.691406 5.699219 39.199219 3.046875 41.707031 0.683594 C 42.148438 0.242188 42.59375 0.09375 43.035156 0.390625 C 43.625 0.832031 43.183594 1.421875 42.886719 1.71875 C 41.855469 2.898438 40.675781 3.929688 39.644531 5.109375 L 36.546875 8.355469 L 37.875 8.355469 C 46.722656 8.355469 55.71875 8.355469 63.980469 4.222656 C 64.421875 3.929688 65.011719 3.78125 65.308594 4.222656 C 65.75 4.960938 65.160156 5.550781 64.714844 5.996094 Z M 64.714844 5.996094 " clip-rule="nonzero"/></clipPath><clipPath id="1dfb0db206"><rect x="0" width="66" y="0" height="52"/></clipPath><clipPath id="a75fabbdbf"><path d="M 299.027344 97.691406 L 335.558594 97.691406 L 335.558594 128.253906 L 299.027344 128.253906 Z M 299.027344 97.691406 " clip-rule="nonzero"/></clipPath><clipPath id="c1a34b0217"><path d="M 2.234375 112.015625 L 194.996094 112.015625 L 194.996094 129.203125 L 2.234375 129.203125 Z M 2.234375 112.015625 " clip-rule="nonzero"/></clipPath><clipPath id="a7963c907c"><path d="M 194.996094 112.050781 C 194.101562 113.179688 191.566406 113.4375 190.136719 113.65625 C 164.777344 117.539062 138.023438 120.351562 112.460938 123.226562 C 94.621094 125.230469 74.621094 128.117188 56.90625 129.046875 C 43.753906 129.734375 15.636719 126.535156 5.480469 117.855469 C 4.964844 117.414062 2.992188 115.582031 2.753906 115.179688 C 1.898438 113.722656 2.203125 112.046875 4.136719 112.542969 C 5.285156 112.839844 10.769531 117.523438 13.0625 118.625 C 30.023438 126.769531 66.765625 124.875 85.71875 123.226562 C 118.632812 120.367188 151.429688 115.273438 184.34375 112.464844 C 187.882812 112.164062 191.433594 111.914062 194.996094 112.050781 Z M 194.996094 112.050781 " clip-rule="nonzero"/></clipPath><clipPath id="cd1ec1c3ac"><path d="M 0.234375 0.015625 L 192.996094 0.015625 L 192.996094 17.203125 L 0.234375 17.203125 Z M 0.234375 0.015625 " clip-rule="nonzero"/></clipPath><clipPath id="886dd061aa"><path d="M 192.996094 0.0507812 C 192.101562 1.179688 189.566406 1.4375 188.136719 1.65625 C 162.777344 5.539062 136.023438 8.351562 110.460938 11.226562 C 92.621094 13.230469 72.621094 16.117188 54.90625 17.046875 C 41.753906 17.734375 13.636719 14.535156 3.480469 5.855469 C 2.964844 5.414062 0.992188 3.582031 0.753906 3.179688 C -0.101562 1.722656 0.203125 0.046875 2.136719 0.542969 C 3.285156 0.839844 8.769531 5.523438 11.0625 6.625 C 28.023438 14.769531 64.765625 12.875 83.71875 11.226562 C 116.632812 8.367188 149.429688 3.273438 182.34375 0.464844 C 185.882812 0.164062 189.433594 -0.0859375 192.996094 0.0507812 Z M 192.996094 0.0507812 " clip-rule="nonzero"/></clipPath><clipPath id="93ee70c763"><rect x="0" width="193" y="0" height="18"/></clipPath><clipPath id="9444d98728"><path d="M 5.25 147.066406 L 23.886719 147.066406 L 23.886719 163.464844 L 5.25 163.464844 Z M 5.25 147.066406 " clip-rule="nonzero"/></clipPath><clipPath id="5b6f4578dd"><path d="M 25.203125 146.609375 L 39.871094 146.609375 L 39.871094 163.664062 L 25.203125 163.664062 Z M 25.203125 146.609375 " clip-rule="nonzero"/></clipPath><clipPath id="7e53203e10"><path d="M 26.726562 148.71875 C 26.183594 149.273438 25.789062 150.21875 25.546875 151.550781 C 25.546875 151.585938 25.496094 151.605469 25.402344 151.605469 C 25.308594 151.605469 25.261719 151.585938 25.261719 151.550781 C 25.328125 150.929688 25.40625 150.113281 25.492188 149.109375 C 25.582031 148.105469 25.621094 147.351562 25.621094 146.847656 C 25.621094 146.761719 25.671875 146.71875 25.765625 146.71875 C 25.859375 146.71875 25.910156 146.761719 25.910156 146.847656 C 25.910156 147.230469 26.375 147.417969 27.3125 147.417969 C 28.785156 147.472656 30.527344 147.496094 32.535156 147.496094 C 33.558594 147.496094 34.640625 147.480469 35.785156 147.445312 L 37.550781 147.417969 C 38.175781 147.417969 38.640625 147.375 38.941406 147.289062 C 39.246094 147.203125 39.441406 147.03125 39.527344 146.769531 C 39.542969 146.703125 39.597656 146.667969 39.683594 146.667969 C 39.769531 146.667969 39.8125 146.703125 39.8125 146.769531 C 39.761719 147.273438 39.710938 148.035156 39.65625 149.058594 C 39.605469 150.078125 39.578125 150.910156 39.578125 151.550781 C 39.578125 151.585938 39.527344 151.605469 39.421875 151.605469 C 39.320312 151.605469 39.269531 151.585938 39.269531 151.550781 C 39.214844 150.199219 38.9375 149.253906 38.4375 148.707031 C 37.933594 148.160156 37.101562 147.886719 35.941406 147.886719 C 35.160156 147.886719 34.605469 147.921875 34.277344 147.992188 C 33.949219 148.0625 33.722656 148.207031 33.601562 148.433594 C 33.480469 148.660156 33.421875 149.039062 33.421875 149.578125 L 33.421875 161.558594 C 33.421875 162.09375 33.480469 162.484375 33.601562 162.726562 C 33.722656 162.96875 33.957031 163.132812 34.304688 163.222656 C 34.648438 163.308594 35.195312 163.351562 35.941406 163.351562 C 35.992188 163.351562 36.019531 163.402344 36.019531 163.507812 C 36.019531 163.613281 35.992188 163.664062 35.941406 163.664062 C 35.371094 163.664062 34.910156 163.652344 34.5625 163.636719 L 32.535156 163.613281 L 30.585938 163.636719 C 30.238281 163.652344 29.765625 163.664062 29.15625 163.664062 C 29.125 163.664062 29.105469 163.613281 29.105469 163.507812 C 29.105469 163.402344 29.125 163.351562 29.15625 163.351562 C 29.902344 163.351562 30.449219 163.308594 30.796875 163.222656 C 31.140625 163.132812 31.378906 162.964844 31.507812 162.714844 C 31.640625 162.464844 31.703125 162.078125 31.703125 161.558594 L 31.703125 149.523438 C 31.703125 148.988281 31.644531 148.609375 31.523438 148.394531 C 31.402344 148.175781 31.175781 148.039062 30.847656 147.980469 C 30.519531 147.917969 29.964844 147.886719 29.183594 147.886719 C 28.09375 147.886719 27.273438 148.164062 26.726562 148.71875 Z M 26.726562 148.71875 " clip-rule="nonzero"/></clipPath><clipPath id="7e5ba4f3b0"><path d="M 0.222656 0.609375 L 14.871094 0.609375 L 14.871094 17.664062 L 0.222656 17.664062 Z M 0.222656 0.609375 " clip-rule="nonzero"/></clipPath><clipPath id="1c81af8d93"><path d="M 1.726562 2.71875 C 1.183594 3.273438 0.789062 4.21875 0.546875 5.550781 C 0.546875 5.585938 0.496094 5.605469 0.402344 5.605469 C 0.308594 5.605469 0.261719 5.585938 0.261719 5.550781 C 0.328125 4.929688 0.40625 4.113281 0.492188 3.109375 C 0.582031 2.105469 0.621094 1.351562 0.621094 0.847656 C 0.621094 0.761719 0.671875 0.71875 0.765625 0.71875 C 0.859375 0.71875 0.910156 0.761719 0.910156 0.847656 C 0.910156 1.230469 1.375 1.417969 2.3125 1.417969 C 3.785156 1.472656 5.527344 1.496094 7.535156 1.496094 C 8.558594 1.496094 9.640625 1.480469 10.785156 1.445312 L 12.550781 1.417969 C 13.175781 1.417969 13.640625 1.375 13.941406 1.289062 C 14.246094 1.203125 14.441406 1.03125 14.527344 0.769531 C 14.542969 0.703125 14.597656 0.667969 14.683594 0.667969 C 14.769531 0.667969 14.8125 0.703125 14.8125 0.769531 C 14.761719 1.273438 14.710938 2.035156 14.65625 3.058594 C 14.605469 4.078125 14.578125 4.910156 14.578125 5.550781 C 14.578125 5.585938 14.527344 5.605469 14.421875 5.605469 C 14.320312 5.605469 14.269531 5.585938 14.269531 5.550781 C 14.214844 4.199219 13.9375 3.253906 13.4375 2.707031 C 12.933594 2.160156 12.101562 1.886719 10.941406 1.886719 C 10.160156 1.886719 9.605469 1.921875 9.277344 1.992188 C 8.949219 2.0625 8.722656 2.207031 8.601562 2.433594 C 8.480469 2.660156 8.421875 3.039062 8.421875 3.578125 L 8.421875 15.558594 C 8.421875 16.09375 8.480469 16.484375 8.601562 16.726562 C 8.722656 16.96875 8.957031 17.132812 9.304688 17.222656 C 9.648438 17.308594 10.195312 17.351562 10.941406 17.351562 C 10.992188 17.351562 11.019531 17.402344 11.019531 17.507812 C 11.019531 17.613281 10.992188 17.664062 10.941406 17.664062 C 10.371094 17.664062 9.910156 17.652344 9.5625 17.636719 L 7.535156 17.613281 L 5.585938 17.636719 C 5.238281 17.652344 4.765625 17.664062 4.15625 17.664062 C 4.125 17.664062 4.105469 17.613281 4.105469 17.507812 C 4.105469 17.402344 4.125 17.351562 4.15625 17.351562 C 4.902344 17.351562 5.449219 17.308594 5.796875 17.222656 C 6.140625 17.132812 6.378906 16.964844 6.507812 16.714844 C 6.640625 16.464844 6.703125 16.078125 6.703125 15.558594 L 6.703125 3.523438 C 6.703125 2.988281 6.644531 2.609375 6.523438 2.394531 C 6.402344 2.175781 6.175781 2.039062 5.847656 1.980469 C 5.519531 1.917969 4.964844 1.886719 4.183594 1.886719 C 3.09375 1.886719 2.273438 2.164062 1.726562 2.71875 Z M 1.726562 2.71875 " clip-rule="nonzero"/></clipPath><clipPath id="be20b4ed73"><rect x="0" width="15" y="0" height="18"/></clipPath><clipPath id="5c4a9fc426"><path d="M 53.179688 147.15625 L 68.460938 147.15625 L 68.460938 163.976562 L 53.179688 163.976562 Z M 53.179688 147.15625 " clip-rule="nonzero"/></clipPath><clipPath id="b33eb4e30b"><path d="M 65.371094 147.390625 C 66.113281 147.542969 66.855469 147.8125 67.597656 148.191406 C 67.71875 148.261719 67.789062 148.324219 67.804688 148.375 C 67.820312 148.425781 67.847656 148.554688 67.882812 148.761719 L 68.195312 151.847656 C 68.195312 151.898438 68.144531 151.929688 68.050781 151.9375 C 67.957031 151.945312 67.898438 151.925781 67.882812 151.871094 C 67.089844 148.988281 65.308594 147.542969 62.542969 147.542969 C 61.09375 147.542969 59.8125 147.863281 58.707031 148.503906 C 57.605469 149.144531 56.75 150.054688 56.144531 151.238281 C 55.539062 152.421875 55.238281 153.800781 55.238281 155.371094 C 55.238281 156.875 55.570312 158.253906 56.234375 159.503906 C 56.898438 160.757812 57.796875 161.746094 58.929688 162.472656 C 60.0625 163.199219 61.292969 163.558594 62.621094 163.558594 C 64.039062 163.558594 65.1875 163.214844 66.070312 162.523438 C 66.949219 161.832031 67.625 160.777344 68.089844 159.363281 C 68.089844 159.328125 68.132812 159.308594 68.21875 159.308594 C 68.339844 159.308594 68.402344 159.335938 68.402344 159.386719 L 68.140625 162.238281 C 68.125 162.445312 68.097656 162.574219 68.0625 162.625 C 68.03125 162.679688 67.960938 162.738281 67.855469 162.808594 C 66.957031 163.242188 66.117188 163.542969 65.332031 163.714844 C 64.542969 163.886719 63.640625 163.976562 62.621094 163.976562 C 60.808594 163.976562 59.1875 163.617188 57.761719 162.898438 C 56.335938 162.183594 55.226562 161.175781 54.433594 159.878906 C 53.636719 158.585938 53.242188 157.097656 53.242188 155.421875 C 53.242188 153.800781 53.648438 152.359375 54.457031 151.109375 C 55.269531 149.855469 56.390625 148.882812 57.816406 148.191406 C 59.242188 147.5 60.84375 147.15625 62.621094 147.15625 C 63.710938 147.15625 64.625 147.234375 65.371094 147.390625 Z M 65.371094 147.390625 " clip-rule="nonzero"/></clipPath><clipPath id="e67ffb4a6b"><path d="M 0.179688 0.15625 L 15.402344 0.15625 L 15.402344 16.976562 L 0.179688 16.976562 Z M 0.179688 0.15625 " clip-rule="nonzero"/></clipPath><clipPath id="21da190566"><path d="M 12.371094 0.390625 C 13.113281 0.542969 13.855469 0.8125 14.597656 1.191406 C 14.71875 1.261719 14.789062 1.324219 14.804688 1.375 C 14.820312 1.425781 14.847656 1.554688 14.882812 1.761719 L 15.195312 4.847656 C 15.195312 4.898438 15.144531 4.929688 15.050781 4.9375 C 14.957031 4.945312 14.898438 4.925781 14.882812 4.871094 C 14.089844 1.988281 12.308594 0.542969 9.542969 0.542969 C 8.09375 0.542969 6.8125 0.863281 5.707031 1.503906 C 4.605469 2.144531 3.75 3.054688 3.144531 4.238281 C 2.539062 5.421875 2.238281 6.800781 2.238281 8.371094 C 2.238281 9.875 2.570312 11.253906 3.234375 12.503906 C 3.898438 13.757812 4.796875 14.746094 5.929688 15.472656 C 7.0625 16.199219 8.292969 16.558594 9.621094 16.558594 C 11.039062 16.558594 12.1875 16.214844 13.070312 15.523438 C 13.949219 14.832031 14.625 13.777344 15.089844 12.363281 C 15.089844 12.328125 15.132812 12.308594 15.21875 12.308594 C 15.339844 12.308594 15.402344 12.335938 15.402344 12.386719 L 15.140625 15.238281 C 15.125 15.445312 15.097656 15.574219 15.0625 15.625 C 15.03125 15.679688 14.960938 15.738281 14.855469 15.808594 C 13.957031 16.242188 13.117188 16.542969 12.332031 16.714844 C 11.542969 16.886719 10.640625 16.976562 9.621094 16.976562 C 7.808594 16.976562 6.1875 16.617188 4.761719 15.898438 C 3.335938 15.183594 2.226562 14.175781 1.433594 12.878906 C 0.636719 11.585938 0.242188 10.097656 0.242188 8.421875 C 0.242188 6.800781 0.648438 5.359375 1.457031 4.109375 C 2.269531 2.855469 3.390625 1.882812 4.816406 1.191406 C 6.242188 0.5 7.84375 0.15625 9.621094 0.15625 C 10.710938 0.15625 11.625 0.234375 12.371094 0.390625 Z M 12.371094 0.390625 " clip-rule="nonzero"/></clipPath><clipPath id="3dc2695e39"><rect x="0" width="16" y="0" height="17"/></clipPath><clipPath id="29a9ede1f4"><path d="M 73.058594 147.335938 L 91.1875 147.335938 L 91.1875 163.679688 L 73.058594 163.679688 Z M 73.058594 147.335938 " clip-rule="nonzero"/></clipPath><clipPath id="7c5f674b76"><path d="M 91.148438 163.523438 C 91.148438 163.628906 91.125 163.679688 91.070312 163.679688 C 90.53125 163.679688 90.109375 163.671875 89.796875 163.652344 L 87.996094 163.628906 L 86.070312 163.652344 C 85.773438 163.671875 85.367188 163.679688 84.847656 163.679688 C 84.792969 163.679688 84.769531 163.628906 84.769531 163.523438 C 84.769531 163.417969 84.792969 163.367188 84.847656 163.367188 C 85.523438 163.367188 86.019531 163.324219 86.332031 163.238281 C 86.644531 163.152344 86.855469 162.980469 86.96875 162.730469 C 87.082031 162.476562 87.136719 162.089844 87.136719 161.570312 L 87.136719 155.472656 L 77.132812 155.472656 L 77.132812 161.570312 C 77.132812 162.089844 77.191406 162.476562 77.304688 162.730469 C 77.417969 162.980469 77.628906 163.152344 77.941406 163.238281 C 78.253906 163.324219 78.75 163.367188 79.425781 163.367188 C 79.460938 163.367188 79.480469 163.417969 79.480469 163.523438 C 79.480469 163.628906 79.460938 163.679688 79.425781 163.679688 C 78.890625 163.679688 78.464844 163.671875 78.152344 163.652344 L 76.277344 163.628906 L 74.476562 163.652344 C 74.164062 163.671875 73.730469 163.679688 73.175781 163.679688 C 73.140625 163.679688 73.125 163.628906 73.125 163.523438 C 73.125 163.417969 73.140625 163.367188 73.175781 163.367188 C 73.835938 163.367188 74.324219 163.324219 74.648438 163.238281 C 74.96875 163.152344 75.183594 162.980469 75.296875 162.730469 C 75.410156 162.476562 75.46875 162.089844 75.46875 161.570312 L 75.46875 149.507812 C 75.46875 148.988281 75.410156 148.605469 75.296875 148.363281 C 75.183594 148.121094 74.972656 147.949219 74.660156 147.855469 C 74.347656 147.757812 73.859375 147.710938 73.203125 147.710938 C 73.167969 147.710938 73.148438 147.660156 73.148438 147.554688 C 73.148438 147.449219 73.167969 147.398438 73.203125 147.398438 L 74.53125 147.425781 C 75.257812 147.460938 75.839844 147.476562 76.277344 147.476562 C 76.777344 147.476562 77.414062 147.460938 78.175781 147.425781 L 79.425781 147.398438 C 79.460938 147.398438 79.480469 147.449219 79.480469 147.554688 C 79.480469 147.660156 79.460938 147.710938 79.425781 147.710938 C 78.765625 147.710938 78.277344 147.761719 77.957031 147.867188 C 77.632812 147.972656 77.417969 148.152344 77.304688 148.402344 C 77.191406 148.652344 77.132812 149.039062 77.132812 149.5625 L 77.132812 154.925781 L 87.136719 154.925781 L 87.136719 149.5625 C 87.136719 149.039062 87.082031 148.652344 86.96875 148.402344 C 86.855469 148.152344 86.644531 147.972656 86.332031 147.867188 C 86.019531 147.761719 85.523438 147.710938 84.847656 147.710938 C 84.792969 147.710938 84.769531 147.660156 84.769531 147.554688 C 84.769531 147.449219 84.792969 147.398438 84.847656 147.398438 L 86.070312 147.425781 C 86.835938 147.460938 87.476562 147.476562 87.996094 147.476562 C 88.464844 147.476562 89.066406 147.460938 89.796875 147.425781 L 91.070312 147.398438 C 91.125 147.398438 91.148438 147.449219 91.148438 147.554688 C 91.148438 147.660156 91.125 147.710938 91.070312 147.710938 C 90.410156 147.710938 89.925781 147.757812 89.613281 147.855469 C 89.300781 147.949219 89.085938 148.121094 88.976562 148.363281 C 88.863281 148.605469 88.804688 148.988281 88.804688 149.507812 L 88.804688 161.570312 C 88.804688 162.089844 88.863281 162.476562 88.976562 162.730469 C 89.085938 162.980469 89.300781 163.152344 89.613281 163.238281 C 89.925781 163.324219 90.410156 163.367188 91.070312 163.367188 C 91.125 163.367188 91.148438 163.417969 91.148438 163.523438 Z M 91.148438 163.523438 " clip-rule="nonzero"/></clipPath><clipPath id="8326a93adf"><path d="M 0.0585938 0.335938 L 18.1875 0.335938 L 18.1875 16.679688 L 0.0585938 16.679688 Z M 0.0585938 0.335938 " clip-rule="nonzero"/></clipPath><clipPath id="0ecd56b2f4"><path d="M 18.148438 16.523438 C 18.148438 16.628906 18.125 16.679688 18.070312 16.679688 C 17.53125 16.679688 17.109375 16.671875 16.796875 16.652344 L 14.996094 16.628906 L 13.070312 16.652344 C 12.773438 16.671875 12.367188 16.679688 11.847656 16.679688 C 11.792969 16.679688 11.769531 16.628906 11.769531 16.523438 C 11.769531 16.417969 11.792969 16.367188 11.847656 16.367188 C 12.523438 16.367188 13.019531 16.324219 13.332031 16.238281 C 13.644531 16.152344 13.855469 15.980469 13.96875 15.730469 C 14.082031 15.476562 14.136719 15.089844 14.136719 14.570312 L 14.136719 8.472656 L 4.132812 8.472656 L 4.132812 14.570312 C 4.132812 15.089844 4.191406 15.476562 4.304688 15.730469 C 4.417969 15.980469 4.628906 16.152344 4.941406 16.238281 C 5.253906 16.324219 5.75 16.367188 6.425781 16.367188 C 6.460938 16.367188 6.480469 16.417969 6.480469 16.523438 C 6.480469 16.628906 6.460938 16.679688 6.425781 16.679688 C 5.890625 16.679688 5.464844 16.671875 5.152344 16.652344 L 3.277344 16.628906 L 1.476562 16.652344 C 1.164062 16.671875 0.730469 16.679688 0.175781 16.679688 C 0.140625 16.679688 0.125 16.628906 0.125 16.523438 C 0.125 16.417969 0.140625 16.367188 0.175781 16.367188 C 0.835938 16.367188 1.324219 16.324219 1.648438 16.238281 C 1.96875 16.152344 2.183594 15.980469 2.296875 15.730469 C 2.410156 15.476562 2.46875 15.089844 2.46875 14.570312 L 2.46875 2.507812 C 2.46875 1.988281 2.410156 1.605469 2.296875 1.363281 C 2.183594 1.121094 1.972656 0.949219 1.660156 0.855469 C 1.347656 0.757812 0.859375 0.710938 0.203125 0.710938 C 0.167969 0.710938 0.148438 0.660156 0.148438 0.554688 C 0.148438 0.449219 0.167969 0.398438 0.203125 0.398438 L 1.53125 0.425781 C 2.257812 0.460938 2.839844 0.476562 3.277344 0.476562 C 3.777344 0.476562 4.414062 0.460938 5.175781 0.425781 L 6.425781 0.398438 C 6.460938 0.398438 6.480469 0.449219 6.480469 0.554688 C 6.480469 0.660156 6.460938 0.710938 6.425781 0.710938 C 5.765625 0.710938 5.277344 0.761719 4.957031 0.867188 C 4.632812 0.972656 4.417969 1.152344 4.304688 1.402344 C 4.191406 1.652344 4.132812 2.039062 4.132812 2.5625 L 4.132812 7.925781 L 14.136719 7.925781 L 14.136719 2.5625 C 14.136719 2.039062 14.082031 1.652344 13.96875 1.402344 C 13.855469 1.152344 13.644531 0.972656 13.332031 0.867188 C 13.019531 0.761719 12.523438 0.710938 11.847656 0.710938 C 11.792969 0.710938 11.769531 0.660156 11.769531 0.554688 C 11.769531 0.449219 11.792969 0.398438 11.847656 0.398438 L 13.070312 0.425781 C 13.835938 0.460938 14.476562 0.476562 14.996094 0.476562 C 15.464844 0.476562 16.066406 0.460938 16.796875 0.425781 L 18.070312 0.398438 C 18.125 0.398438 18.148438 0.449219 18.148438 0.554688 C 18.148438 0.660156 18.125 0.710938 18.070312 0.710938 C 17.410156 0.710938 16.925781 0.757812 16.613281 0.855469 C 16.300781 0.949219 16.085938 1.121094 15.976562 1.363281 C 15.863281 1.605469 15.804688 1.988281 15.804688 2.507812 L 15.804688 14.570312 C 15.804688 15.089844 15.863281 15.476562 15.976562 15.730469 C 16.085938 15.980469 16.300781 16.152344 16.613281 16.238281 C 16.925781 16.324219 17.410156 16.367188 18.070312 16.367188 C 18.125 16.367188 18.148438 16.417969 18.148438 16.523438 Z M 18.148438 16.523438 " clip-rule="nonzero"/></clipPath><clipPath id="a0a44d9fce"><rect x="0" width="19" y="0" height="17"/></clipPath><clipPath id="f9ff81a003"><path d="M 94.414062 147.066406 L 113 147.066406 L 113 163.464844 L 94.414062 163.464844 Z M 94.414062 147.066406 " clip-rule="nonzero"/></clipPath><clipPath id="085c5cfae0"><path d="M 116.238281 147.417969 L 133.691406 147.417969 L 133.691406 164.007812 L 116.238281 164.007812 Z M 116.238281 147.417969 " clip-rule="nonzero"/></clipPath><clipPath id="4e51cdd55d"><path d="M 133.65625 147.574219 C 133.65625 147.679688 133.632812 147.730469 133.578125 147.730469 C 132.851562 147.730469 132.324219 147.929688 131.996094 148.324219 C 131.667969 148.722656 131.503906 149.371094 131.503906 150.273438 L 131.503906 163.941406 C 131.503906 163.976562 131.460938 164.003906 131.375 164.019531 C 131.289062 164.039062 131.226562 164.027344 131.191406 163.996094 L 119.261719 149.546875 L 119.027344 149.285156 L 119.027344 160.804688 C 119.027344 161.703125 119.1875 162.347656 119.507812 162.734375 C 119.828125 163.125 120.339844 163.320312 121.050781 163.320312 C 121.101562 163.320312 121.128906 163.371094 121.128906 163.476562 C 121.128906 163.578125 121.101562 163.632812 121.050781 163.632812 C 120.617188 163.632812 120.289062 163.621094 120.066406 163.605469 L 118.765625 163.578125 L 117.445312 163.605469 C 117.203125 163.621094 116.847656 163.632812 116.378906 163.632812 C 116.347656 163.632812 116.328125 163.578125 116.328125 163.476562 C 116.328125 163.371094 116.347656 163.320312 116.378906 163.320312 C 117.125 163.320312 117.652344 163.125 117.964844 162.734375 C 118.273438 162.347656 118.429688 161.703125 118.429688 160.804688 L 118.429688 148.664062 C 117.753906 148.039062 117.070312 147.730469 116.378906 147.730469 C 116.328125 147.730469 116.300781 147.679688 116.300781 147.574219 C 116.300781 147.46875 116.328125 147.417969 116.378906 147.417969 L 117.339844 147.445312 C 117.546875 147.460938 117.832031 147.46875 118.195312 147.46875 C 118.578125 147.46875 118.886719 147.460938 119.128906 147.445312 C 119.371094 147.425781 119.5625 147.417969 119.699219 147.417969 C 119.839844 147.417969 119.9375 147.449219 120 147.507812 C 120.058594 147.570312 120.160156 147.703125 120.296875 147.910156 C 120.503906 148.222656 120.714844 148.507812 120.921875 148.769531 L 130.90625 161.039062 L 130.90625 150.273438 C 130.90625 149.371094 130.757812 148.722656 130.453125 148.324219 C 130.152344 147.929688 129.644531 147.730469 128.9375 147.730469 C 128.902344 147.730469 128.882812 147.679688 128.882812 147.574219 C 128.882812 147.46875 128.902344 147.417969 128.9375 147.417969 L 129.949219 147.445312 C 130.464844 147.480469 130.890625 147.496094 131.21875 147.496094 C 131.53125 147.496094 131.960938 147.480469 132.515625 147.445312 L 133.578125 147.417969 C 133.632812 147.417969 133.65625 147.46875 133.65625 147.574219 Z M 133.65625 147.574219 " clip-rule="nonzero"/></clipPath><clipPath id="e1595513af"><path d="M 0.238281 0.417969 L 17.691406 0.417969 L 17.691406 17.007812 L 0.238281 17.007812 Z M 0.238281 0.417969 " clip-rule="nonzero"/></clipPath><clipPath id="c59920bb1b"><path d="M 17.65625 0.574219 C 17.65625 0.679688 17.632812 0.730469 17.578125 0.730469 C 16.851562 0.730469 16.324219 0.929688 15.996094 1.324219 C 15.667969 1.722656 15.503906 2.371094 15.503906 3.273438 L 15.503906 16.941406 C 15.503906 16.976562 15.460938 17.003906 15.375 17.019531 C 15.289062 17.039062 15.226562 17.027344 15.191406 16.996094 L 3.261719 2.546875 L 3.027344 2.285156 L 3.027344 13.804688 C 3.027344 14.703125 3.1875 15.347656 3.507812 15.734375 C 3.828125 16.125 4.339844 16.320312 5.050781 16.320312 C 5.101562 16.320312 5.128906 16.371094 5.128906 16.476562 C 5.128906 16.578125 5.101562 16.632812 5.050781 16.632812 C 4.617188 16.632812 4.289062 16.621094 4.066406 16.605469 L 2.765625 16.578125 L 1.445312 16.605469 C 1.203125 16.621094 0.847656 16.632812 0.378906 16.632812 C 0.347656 16.632812 0.328125 16.578125 0.328125 16.476562 C 0.328125 16.371094 0.347656 16.320312 0.378906 16.320312 C 1.125 16.320312 1.652344 16.125 1.964844 15.734375 C 2.273438 15.347656 2.429688 14.703125 2.429688 13.804688 L 2.429688 1.664062 C 1.753906 1.039062 1.070312 0.730469 0.378906 0.730469 C 0.328125 0.730469 0.300781 0.679688 0.300781 0.574219 C 0.300781 0.46875 0.328125 0.417969 0.378906 0.417969 L 1.339844 0.445312 C 1.546875 0.460938 1.832031 0.46875 2.195312 0.46875 C 2.578125 0.46875 2.886719 0.460938 3.128906 0.445312 C 3.371094 0.425781 3.5625 0.417969 3.699219 0.417969 C 3.839844 0.417969 3.9375 0.449219 4 0.507812 C 4.058594 0.570312 4.160156 0.703125 4.296875 0.910156 C 4.503906 1.222656 4.714844 1.507812 4.921875 1.769531 L 14.90625 14.039062 L 14.90625 3.273438 C 14.90625 2.371094 14.757812 1.722656 14.453125 1.324219 C 14.152344 0.929688 13.644531 0.730469 12.9375 0.730469 C 12.902344 0.730469 12.882812 0.679688 12.882812 0.574219 C 12.882812 0.46875 12.902344 0.417969 12.9375 0.417969 L 13.949219 0.445312 C 14.464844 0.480469 14.890625 0.496094 15.21875 0.496094 C 15.53125 0.496094 15.960938 0.480469 16.515625 0.445312 L 17.578125 0.417969 C 17.632812 0.417969 17.65625 0.46875 17.65625 0.574219 Z M 17.65625 0.574219 " clip-rule="nonzero"/></clipPath><clipPath id="9a43c8d3cc"><rect x="0" width="18" y="0" height="18"/></clipPath><clipPath id="71824812dd"><path d="M 137.640625 147.417969 L 155.097656 147.417969 L 155.097656 164.007812 L 137.640625 164.007812 Z M 137.640625 147.417969 " clip-rule="nonzero"/></clipPath><clipPath id="bc66c03bca"><path d="M 155.0625 147.574219 C 155.0625 147.679688 155.035156 147.730469 154.984375 147.730469 C 154.257812 147.730469 153.730469 147.929688 153.402344 148.324219 C 153.074219 148.722656 152.910156 149.371094 152.910156 150.273438 L 152.910156 163.941406 C 152.910156 163.976562 152.867188 164.003906 152.777344 164.019531 C 152.691406 164.039062 152.632812 164.027344 152.597656 163.996094 L 140.664062 149.546875 L 140.429688 149.285156 L 140.429688 160.804688 C 140.429688 161.703125 140.589844 162.347656 140.910156 162.734375 C 141.230469 163.125 141.746094 163.320312 142.453125 163.320312 C 142.507812 163.320312 142.53125 163.371094 142.53125 163.476562 C 142.53125 163.578125 142.507812 163.632812 142.453125 163.632812 C 142.023438 163.632812 141.691406 163.621094 141.46875 163.605469 L 140.171875 163.578125 L 138.847656 163.605469 C 138.605469 163.621094 138.25 163.632812 137.785156 163.632812 C 137.75 163.632812 137.734375 163.578125 137.734375 163.476562 C 137.734375 163.371094 137.75 163.320312 137.785156 163.320312 C 138.527344 163.320312 139.054688 163.125 139.367188 162.734375 C 139.679688 162.347656 139.835938 161.703125 139.835938 160.804688 L 139.835938 148.664062 C 139.160156 148.039062 138.476562 147.730469 137.785156 147.730469 C 137.734375 147.730469 137.707031 147.679688 137.707031 147.574219 C 137.707031 147.46875 137.734375 147.417969 137.785156 147.417969 L 138.746094 147.445312 C 138.953125 147.460938 139.238281 147.46875 139.601562 147.46875 C 139.980469 147.46875 140.292969 147.460938 140.535156 147.445312 C 140.777344 147.425781 140.964844 147.417969 141.105469 147.417969 C 141.242188 147.417969 141.34375 147.449219 141.402344 147.507812 C 141.464844 147.570312 141.5625 147.703125 141.703125 147.910156 C 141.910156 148.222656 142.117188 148.507812 142.324219 148.769531 L 152.3125 161.039062 L 152.3125 150.273438 C 152.3125 149.371094 152.160156 148.722656 151.859375 148.324219 C 151.554688 147.929688 151.050781 147.730469 150.339844 147.730469 C 150.304688 147.730469 150.289062 147.679688 150.289062 147.574219 C 150.289062 147.46875 150.304688 147.417969 150.339844 147.417969 L 151.351562 147.445312 C 151.871094 147.480469 152.292969 147.496094 152.621094 147.496094 C 152.933594 147.496094 153.367188 147.480469 153.921875 147.445312 L 154.984375 147.417969 C 155.035156 147.417969 155.0625 147.46875 155.0625 147.574219 Z M 155.0625 147.574219 " clip-rule="nonzero"/></clipPath><clipPath id="0d5661c000"><path d="M 0.640625 0.417969 L 18.097656 0.417969 L 18.097656 17.007812 L 0.640625 17.007812 Z M 0.640625 0.417969 " clip-rule="nonzero"/></clipPath><clipPath id="fa99d91f74"><path d="M 18.0625 0.574219 C 18.0625 0.679688 18.035156 0.730469 17.984375 0.730469 C 17.257812 0.730469 16.730469 0.929688 16.402344 1.324219 C 16.074219 1.722656 15.910156 2.371094 15.910156 3.273438 L 15.910156 16.941406 C 15.910156 16.976562 15.867188 17.003906 15.777344 17.019531 C 15.691406 17.039062 15.632812 17.027344 15.597656 16.996094 L 3.664062 2.546875 L 3.429688 2.285156 L 3.429688 13.804688 C 3.429688 14.703125 3.589844 15.347656 3.910156 15.734375 C 4.230469 16.125 4.746094 16.320312 5.453125 16.320312 C 5.507812 16.320312 5.53125 16.371094 5.53125 16.476562 C 5.53125 16.578125 5.507812 16.632812 5.453125 16.632812 C 5.023438 16.632812 4.691406 16.621094 4.46875 16.605469 L 3.171875 16.578125 L 1.847656 16.605469 C 1.605469 16.621094 1.25 16.632812 0.785156 16.632812 C 0.75 16.632812 0.734375 16.578125 0.734375 16.476562 C 0.734375 16.371094 0.75 16.320312 0.785156 16.320312 C 1.527344 16.320312 2.054688 16.125 2.367188 15.734375 C 2.679688 15.347656 2.835938 14.703125 2.835938 13.804688 L 2.835938 1.664062 C 2.160156 1.039062 1.476562 0.730469 0.785156 0.730469 C 0.734375 0.730469 0.707031 0.679688 0.707031 0.574219 C 0.707031 0.46875 0.734375 0.417969 0.785156 0.417969 L 1.746094 0.445312 C 1.953125 0.460938 2.238281 0.46875 2.601562 0.46875 C 2.980469 0.46875 3.292969 0.460938 3.535156 0.445312 C 3.777344 0.425781 3.964844 0.417969 4.105469 0.417969 C 4.242188 0.417969 4.34375 0.449219 4.402344 0.507812 C 4.464844 0.570312 4.5625 0.703125 4.703125 0.910156 C 4.910156 1.222656 5.117188 1.507812 5.324219 1.769531 L 15.3125 14.039062 L 15.3125 3.273438 C 15.3125 2.371094 15.160156 1.722656 14.859375 1.324219 C 14.554688 0.929688 14.050781 0.730469 13.339844 0.730469 C 13.304688 0.730469 13.289062 0.679688 13.289062 0.574219 C 13.289062 0.46875 13.304688 0.417969 13.339844 0.417969 L 14.351562 0.445312 C 14.871094 0.480469 15.292969 0.496094 15.621094 0.496094 C 15.933594 0.496094 16.367188 0.480469 16.921875 0.445312 L 17.984375 0.417969 C 18.035156 0.417969 18.0625 0.46875 18.0625 0.574219 Z M 18.0625 0.574219 " clip-rule="nonzero"/></clipPath><clipPath id="bc7ab16e51"><rect x="0" width="19" y="0" height="18"/></clipPath><clipPath id="6c5200ffd7"><path d="M 159.121094 147.398438 L 170.78125 147.398438 L 170.78125 163.691406 L 159.121094 163.691406 Z M 159.121094 147.398438 " clip-rule="nonzero"/></clipPath><clipPath id="fe6b34e82d"><path d="M 170.574219 159.746094 C 170.625 159.746094 170.675781 159.757812 170.71875 159.773438 C 170.761719 159.789062 170.78125 159.816406 170.78125 159.851562 C 170.625 160.945312 170.546875 162.089844 170.546875 163.289062 C 170.546875 163.429688 170.519531 163.527344 170.457031 163.589844 C 170.394531 163.648438 170.289062 163.679688 170.132812 163.679688 L 159.214844 163.679688 C 159.183594 163.679688 159.164062 163.628906 159.164062 163.523438 C 159.164062 163.417969 159.183594 163.367188 159.214844 163.367188 C 159.875 163.367188 160.359375 163.324219 160.664062 163.238281 C 160.964844 163.152344 161.175781 162.980469 161.289062 162.730469 C 161.402344 162.476562 161.457031 162.089844 161.457031 161.570312 L 161.457031 149.507812 C 161.457031 148.988281 161.402344 148.605469 161.289062 148.363281 C 161.175781 148.121094 160.964844 147.949219 160.664062 147.855469 C 160.359375 147.757812 159.875 147.710938 159.214844 147.710938 C 159.183594 147.710938 159.164062 147.660156 159.164062 147.554688 C 159.164062 147.449219 159.183594 147.398438 159.214844 147.398438 L 169.6875 147.398438 C 169.84375 147.398438 169.921875 147.476562 169.921875 147.632812 L 169.976562 150.835938 C 169.976562 150.890625 169.933594 150.921875 169.84375 150.929688 C 169.757812 150.9375 169.707031 150.914062 169.6875 150.863281 C 169.636719 149.945312 169.359375 149.226562 168.855469 148.714844 C 168.351562 148.203125 167.683594 147.945312 166.847656 147.945312 L 165.261719 147.945312 C 164.652344 147.945312 164.207031 147.992188 163.917969 148.089844 C 163.632812 148.183594 163.433594 148.351562 163.320312 148.585938 C 163.207031 148.820312 163.152344 149.171875 163.152344 149.640625 L 163.152344 154.925781 L 166.328125 154.925781 C 167.164062 154.925781 167.757812 154.789062 168.113281 154.511719 C 168.46875 154.234375 168.648438 153.765625 168.648438 153.105469 C 168.648438 153.070312 168.699219 153.050781 168.804688 153.050781 C 168.90625 153.050781 168.960938 153.070312 168.960938 153.105469 L 168.933594 155.214844 C 168.933594 155.71875 168.941406 156.101562 168.960938 156.359375 L 168.984375 157.609375 C 168.984375 157.644531 168.933594 157.664062 168.828125 157.664062 C 168.726562 157.664062 168.671875 157.644531 168.671875 157.609375 C 168.671875 156.847656 168.484375 156.300781 168.113281 155.96875 C 167.738281 155.640625 167.117188 155.476562 166.25 155.476562 L 163.152344 155.476562 L 163.152344 161.464844 C 163.152344 161.953125 163.203125 162.308594 163.304688 162.535156 C 163.410156 162.761719 163.601562 162.917969 163.878906 163.003906 C 164.15625 163.089844 164.59375 163.132812 165.183594 163.132812 L 167.265625 163.132812 C 168.101562 163.132812 168.792969 162.839844 169.351562 162.246094 C 169.90625 161.65625 170.277344 160.839844 170.472656 159.796875 C 170.472656 159.765625 170.503906 159.746094 170.574219 159.746094 Z M 170.574219 159.746094 " clip-rule="nonzero"/></clipPath><clipPath id="4fbe74c8f7"><path d="M 0.121094 0.398438 L 11.78125 0.398438 L 11.78125 16.691406 L 0.121094 16.691406 Z M 0.121094 0.398438 " clip-rule="nonzero"/></clipPath><clipPath id="cfa24ac5e8"><path d="M 11.574219 12.746094 C 11.625 12.746094 11.675781 12.757812 11.71875 12.773438 C 11.761719 12.789062 11.78125 12.816406 11.78125 12.851562 C 11.625 13.945312 11.546875 15.089844 11.546875 16.289062 C 11.546875 16.429688 11.519531 16.527344 11.457031 16.589844 C 11.394531 16.648438 11.289062 16.679688 11.132812 16.679688 L 0.214844 16.679688 C 0.183594 16.679688 0.164062 16.628906 0.164062 16.523438 C 0.164062 16.417969 0.183594 16.367188 0.214844 16.367188 C 0.875 16.367188 1.359375 16.324219 1.664062 16.238281 C 1.964844 16.152344 2.175781 15.980469 2.289062 15.730469 C 2.402344 15.476562 2.457031 15.089844 2.457031 14.570312 L 2.457031 2.507812 C 2.457031 1.988281 2.402344 1.605469 2.289062 1.363281 C 2.175781 1.121094 1.964844 0.949219 1.664062 0.855469 C 1.359375 0.757812 0.875 0.710938 0.214844 0.710938 C 0.183594 0.710938 0.164062 0.660156 0.164062 0.554688 C 0.164062 0.449219 0.183594 0.398438 0.214844 0.398438 L 10.6875 0.398438 C 10.84375 0.398438 10.921875 0.476562 10.921875 0.632812 L 10.976562 3.835938 C 10.976562 3.890625 10.933594 3.921875 10.84375 3.929688 C 10.757812 3.9375 10.707031 3.914062 10.6875 3.863281 C 10.636719 2.945312 10.359375 2.226562 9.855469 1.714844 C 9.351562 1.203125 8.683594 0.945312 7.847656 0.945312 L 6.261719 0.945312 C 5.652344 0.945312 5.207031 0.992188 4.917969 1.089844 C 4.632812 1.183594 4.433594 1.351562 4.320312 1.585938 C 4.207031 1.820312 4.152344 2.171875 4.152344 2.640625 L 4.152344 7.925781 L 7.328125 7.925781 C 8.164062 7.925781 8.757812 7.789062 9.113281 7.511719 C 9.46875 7.234375 9.648438 6.765625 9.648438 6.105469 C 9.648438 6.070312 9.699219 6.050781 9.804688 6.050781 C 9.90625 6.050781 9.960938 6.070312 9.960938 6.105469 L 9.933594 8.214844 C 9.933594 8.71875 9.941406 9.101562 9.960938 9.359375 L 9.984375 10.609375 C 9.984375 10.644531 9.933594 10.664062 9.828125 10.664062 C 9.726562 10.664062 9.671875 10.644531 9.671875 10.609375 C 9.671875 9.847656 9.484375 9.300781 9.113281 8.96875 C 8.738281 8.640625 8.117188 8.476562 7.25 8.476562 L 4.152344 8.476562 L 4.152344 14.464844 C 4.152344 14.953125 4.203125 15.308594 4.304688 15.535156 C 4.410156 15.761719 4.601562 15.917969 4.878906 16.003906 C 5.15625 16.089844 5.59375 16.132812 6.183594 16.132812 L 8.265625 16.132812 C 9.101562 16.132812 9.792969 15.839844 10.351562 15.246094 C 10.90625 14.65625 11.277344 13.839844 11.472656 12.796875 C 11.472656 12.765625 11.503906 12.746094 11.574219 12.746094 Z M 11.574219 12.746094 " clip-rule="nonzero"/></clipPath><clipPath id="067a0e6257"><rect x="0" width="12" y="0" height="17"/></clipPath><clipPath id="66af83ccf3"><path d="M 175.453125 147.398438 L 188.203125 147.398438 L 188.203125 163.675781 L 175.453125 163.675781 Z M 175.453125 147.398438 " clip-rule="nonzero"/></clipPath><clipPath id="4519dc87c8"><path d="M 179.40625 161.457031 C 179.40625 161.960938 179.460938 162.324219 179.5625 162.546875 C 179.667969 162.773438 179.859375 162.925781 180.136719 163.003906 C 180.414062 163.082031 180.863281 163.121094 181.488281 163.121094 L 184.328125 163.121094 C 185.316406 163.121094 186.105469 162.816406 186.695312 162.210938 C 187.285156 161.601562 187.675781 160.761719 187.867188 159.6875 C 187.867188 159.632812 187.914062 159.613281 188.011719 159.621094 C 188.105469 159.628906 188.15625 159.660156 188.15625 159.710938 C 187.996094 161.152344 187.917969 162.339844 187.917969 163.277344 C 187.917969 163.417969 187.894531 163.515625 187.839844 163.578125 C 187.789062 163.636719 187.6875 163.667969 187.527344 163.667969 L 175.503906 163.667969 C 175.46875 163.667969 175.453125 163.617188 175.453125 163.511719 C 175.453125 163.40625 175.46875 163.355469 175.503906 163.355469 C 176.164062 163.355469 176.644531 163.3125 176.949219 163.226562 C 177.25 163.136719 177.457031 162.96875 177.558594 162.71875 C 177.664062 162.464844 177.714844 162.078125 177.714844 161.558594 L 177.714844 149.507812 C 177.714844 148.988281 177.664062 148.605469 177.558594 148.363281 C 177.457031 148.121094 177.25 147.949219 176.949219 147.855469 C 176.644531 147.757812 176.164062 147.710938 175.503906 147.710938 C 175.46875 147.710938 175.453125 147.660156 175.453125 147.554688 C 175.453125 147.449219 175.46875 147.398438 175.503906 147.398438 L 176.777344 147.425781 C 177.507812 147.460938 178.097656 147.476562 178.546875 147.476562 C 179.035156 147.476562 179.640625 147.460938 180.371094 147.425781 L 181.621094 147.398438 C 181.671875 147.398438 181.699219 147.449219 181.699219 147.554688 C 181.699219 147.660156 181.671875 147.710938 181.621094 147.710938 C 180.980469 147.710938 180.503906 147.757812 180.203125 147.855469 C 179.898438 147.949219 179.691406 148.125 179.578125 148.375 C 179.464844 148.628906 179.40625 149.011719 179.40625 149.535156 Z M 179.40625 161.457031 " clip-rule="nonzero"/></clipPath><clipPath id="4308f6dcf0"><path d="M 0.453125 0.398438 L 13.15625 0.398438 L 13.15625 16.675781 L 0.453125 16.675781 Z M 0.453125 0.398438 " clip-rule="nonzero"/></clipPath><clipPath id="bb09489566"><path d="M 4.40625 14.457031 C 4.40625 14.960938 4.460938 15.324219 4.5625 15.546875 C 4.667969 15.773438 4.859375 15.925781 5.136719 16.003906 C 5.414062 16.082031 5.863281 16.121094 6.488281 16.121094 L 9.328125 16.121094 C 10.316406 16.121094 11.105469 15.816406 11.695312 15.210938 C 12.285156 14.601562 12.675781 13.761719 12.867188 12.6875 C 12.867188 12.632812 12.914062 12.613281 13.011719 12.621094 C 13.105469 12.628906 13.15625 12.660156 13.15625 12.710938 C 12.996094 14.152344 12.917969 15.339844 12.917969 16.277344 C 12.917969 16.417969 12.894531 16.515625 12.839844 16.578125 C 12.789062 16.636719 12.6875 16.667969 12.527344 16.667969 L 0.503906 16.667969 C 0.46875 16.667969 0.453125 16.617188 0.453125 16.511719 C 0.453125 16.40625 0.46875 16.355469 0.503906 16.355469 C 1.164062 16.355469 1.644531 16.3125 1.949219 16.226562 C 2.25 16.136719 2.457031 15.96875 2.558594 15.71875 C 2.664062 15.464844 2.714844 15.078125 2.714844 14.558594 L 2.714844 2.507812 C 2.714844 1.988281 2.664062 1.605469 2.558594 1.363281 C 2.457031 1.121094 2.25 0.949219 1.949219 0.855469 C 1.644531 0.757812 1.164062 0.710938 0.503906 0.710938 C 0.46875 0.710938 0.453125 0.660156 0.453125 0.554688 C 0.453125 0.449219 0.46875 0.398438 0.503906 0.398438 L 1.777344 0.425781 C 2.507812 0.460938 3.097656 0.476562 3.546875 0.476562 C 4.035156 0.476562 4.640625 0.460938 5.371094 0.425781 L 6.621094 0.398438 C 6.671875 0.398438 6.699219 0.449219 6.699219 0.554688 C 6.699219 0.660156 6.671875 0.710938 6.621094 0.710938 C 5.980469 0.710938 5.503906 0.757812 5.203125 0.855469 C 4.898438 0.949219 4.691406 1.125 4.578125 1.375 C 4.464844 1.628906 4.40625 2.011719 4.40625 2.535156 Z M 4.40625 14.457031 " clip-rule="nonzero"/></clipPath><clipPath id="544d9a80f1"><rect x="0" width="14" y="0" height="17"/></clipPath><clipPath id="67bc664c44"><path d="M 201.328125 147.144531 L 210.980469 147.144531 L 210.980469 163.984375 L 201.328125 163.984375 Z M 201.328125 147.144531 " clip-rule="nonzero"/></clipPath><clipPath id="59261e6783"><path d="M 203.859375 152.230469 C 204.1875 152.734375 204.589844 153.152344 205.066406 153.488281 C 205.542969 153.828125 206.195312 154.246094 207.027344 154.746094 C 207.941406 155.300781 208.648438 155.761719 209.140625 156.125 C 209.632812 156.488281 210.058594 156.949219 210.414062 157.511719 C 210.765625 158.074219 210.945312 158.746094 210.945312 159.523438 C 210.945312 160.355469 210.738281 161.105469 210.320312 161.78125 C 209.90625 162.457031 209.296875 162.988281 208.492188 163.378906 C 207.6875 163.765625 206.722656 163.960938 205.597656 163.960938 C 204.265625 163.960938 203.046875 163.660156 201.9375 163.054688 C 201.851562 163 201.796875 162.941406 201.769531 162.871094 C 201.746094 162.800781 201.722656 162.699219 201.707031 162.558594 L 201.367188 159.03125 C 201.351562 158.960938 201.390625 158.917969 201.484375 158.902344 C 201.578125 158.882812 201.636719 158.910156 201.652344 158.976562 C 201.929688 160.222656 202.445312 161.296875 203.199219 162.195312 C 203.949219 163.097656 204.949219 163.546875 206.195312 163.546875 C 207.058594 163.546875 207.792969 163.308594 208.386719 162.832031 C 208.984375 162.355469 209.285156 161.597656 209.285156 160.5625 C 209.285156 159.785156 209.109375 159.109375 208.765625 158.539062 C 208.417969 157.964844 208 157.496094 207.507812 157.121094 C 207.011719 156.75 206.339844 156.3125 205.496094 155.8125 C 204.664062 155.308594 204.011719 154.878906 203.535156 154.515625 C 203.058594 154.152344 202.65625 153.691406 202.328125 153.140625 C 202 152.585938 201.835938 151.9375 201.835938 151.191406 C 201.835938 150.328125 202.0625 149.585938 202.523438 148.972656 C 202.980469 148.359375 203.578125 147.902344 204.3125 147.597656 C 205.050781 147.292969 205.832031 147.144531 206.664062 147.144531 C 207.683594 147.144531 208.695312 147.351562 209.699219 147.765625 C 209.957031 147.851562 210.089844 148 210.089844 148.207031 L 210.269531 151.191406 C 210.269531 151.261719 210.226562 151.296875 210.140625 151.296875 C 210.054688 151.296875 210 151.261719 209.984375 151.191406 C 209.847656 150.292969 209.472656 149.457031 208.867188 148.6875 C 208.261719 147.917969 207.390625 147.53125 206.246094 147.53125 C 205.277344 147.53125 204.554688 147.816406 204.082031 148.375 C 203.605469 148.9375 203.367188 149.632812 203.367188 150.464844 C 203.367188 151.140625 203.53125 151.730469 203.859375 152.230469 Z M 203.859375 152.230469 " clip-rule="nonzero"/></clipPath><clipPath id="3ee09bba82"><path d="M 0.328125 0.144531 L 9.980469 0.144531 L 9.980469 16.984375 L 0.328125 16.984375 Z M 0.328125 0.144531 " clip-rule="nonzero"/></clipPath><clipPath id="a6eb097181"><path d="M 2.859375 5.230469 C 3.1875 5.734375 3.589844 6.152344 4.066406 6.488281 C 4.542969 6.828125 5.195312 7.246094 6.027344 7.746094 C 6.941406 8.300781 7.648438 8.761719 8.140625 9.125 C 8.632812 9.488281 9.058594 9.949219 9.414062 10.511719 C 9.765625 11.074219 9.945312 11.746094 9.945312 12.523438 C 9.945312 13.355469 9.738281 14.105469 9.320312 14.78125 C 8.90625 15.457031 8.296875 15.988281 7.492188 16.378906 C 6.6875 16.765625 5.722656 16.960938 4.597656 16.960938 C 3.265625 16.960938 2.046875 16.660156 0.9375 16.054688 C 0.851562 16 0.796875 15.941406 0.769531 15.871094 C 0.746094 15.800781 0.722656 15.699219 0.707031 15.558594 L 0.367188 12.03125 C 0.351562 11.960938 0.390625 11.917969 0.484375 11.902344 C 0.578125 11.882812 0.636719 11.910156 0.652344 11.976562 C 0.929688 13.222656 1.445312 14.296875 2.199219 15.195312 C 2.949219 16.097656 3.949219 16.546875 5.195312 16.546875 C 6.058594 16.546875 6.792969 16.308594 7.386719 15.832031 C 7.984375 15.355469 8.285156 14.597656 8.285156 13.5625 C 8.285156 12.785156 8.109375 12.109375 7.765625 11.539062 C 7.417969 10.964844 7 10.496094 6.507812 10.121094 C 6.011719 9.75 5.339844 9.3125 4.496094 8.8125 C 3.664062 8.308594 3.011719 7.878906 2.535156 7.515625 C 2.058594 7.152344 1.65625 6.691406 1.328125 6.140625 C 1 5.585938 0.835938 4.9375 0.835938 4.191406 C 0.835938 3.328125 1.0625 2.585938 1.523438 1.972656 C 1.980469 1.359375 2.578125 0.902344 3.3125 0.597656 C 4.050781 0.292969 4.832031 0.144531 5.664062 0.144531 C 6.683594 0.144531 7.695312 0.351562 8.699219 0.765625 C 8.957031 0.851562 9.089844 1 9.089844 1.207031 L 9.269531 4.191406 C 9.269531 4.261719 9.226562 4.296875 9.140625 4.296875 C 9.054688 4.296875 9 4.261719 8.984375 4.191406 C 8.847656 3.292969 8.472656 2.457031 7.867188 1.6875 C 7.261719 0.917969 6.390625 0.53125 5.246094 0.53125 C 4.277344 0.53125 3.554688 0.816406 3.082031 1.375 C 2.605469 1.9375 2.367188 2.632812 2.367188 3.464844 C 2.367188 4.140625 2.53125 4.730469 2.859375 5.230469 Z M 2.859375 5.230469 " clip-rule="nonzero"/></clipPath><clipPath id="aace75148b"><rect x="0" width="10" y="0" height="17"/></clipPath><clipPath id="3ba6054602"><path d="M 216.195312 147.144531 L 233.339844 147.144531 L 233.339844 164.007812 L 216.195312 164.007812 Z M 216.195312 147.144531 " clip-rule="nonzero"/></clipPath><clipPath id="cde594c659"><path d="M 237.996094 147.386719 L 255 147.386719 L 255 164.007812 L 237.996094 164.007812 Z M 237.996094 147.386719 " clip-rule="nonzero"/></clipPath><clipPath id="766376651b"><path d="M 249.941406 147.699219 C 249.890625 147.699219 249.863281 147.648438 249.863281 147.542969 C 249.863281 147.441406 249.890625 147.386719 249.941406 147.386719 L 251.0625 147.414062 C 251.6875 147.449219 252.183594 147.464844 252.546875 147.464844 C 252.84375 147.464844 253.269531 147.449219 253.828125 147.414062 L 254.921875 147.386719 C 254.957031 147.386719 254.972656 147.441406 254.972656 147.542969 C 254.972656 147.648438 254.957031 147.699219 254.921875 147.699219 C 253.53125 147.699219 252.835938 148.554688 252.835938 150.257812 L 252.835938 157.664062 C 252.835938 159.664062 252.277344 161.222656 251.167969 162.34375 C 250.050781 163.464844 248.558594 164.027344 246.679688 164.027344 C 245.394531 164.027344 244.269531 163.773438 243.304688 163.269531 C 242.335938 162.765625 241.589844 162.050781 241.058594 161.117188 C 240.53125 160.191406 240.265625 159.097656 240.265625 157.847656 L 240.265625 149.5 C 240.265625 148.980469 240.210938 148.597656 240.109375 148.351562 C 240.003906 148.109375 239.800781 147.941406 239.496094 147.84375 C 239.191406 147.75 238.707031 147.699219 238.046875 147.699219 C 238.011719 147.699219 237.996094 147.648438 237.996094 147.542969 C 237.996094 147.441406 238.011719 147.386719 238.046875 147.386719 L 239.324219 147.414062 C 240.054688 147.449219 240.648438 147.464844 241.097656 147.464844 C 241.585938 147.464844 242.195312 147.449219 242.925781 147.414062 L 244.175781 147.386719 C 244.226562 147.386719 244.253906 147.441406 244.253906 147.542969 C 244.253906 147.648438 244.226562 147.699219 244.175781 147.699219 C 243.535156 147.699219 243.054688 147.753906 242.742188 147.855469 C 242.429688 147.960938 242.21875 148.140625 242.117188 148.390625 C 242.011719 148.644531 241.960938 149.03125 241.960938 149.550781 L 241.960938 156.933594 C 241.960938 158.96875 242.425781 160.527344 243.355469 161.613281 C 244.285156 162.703125 245.585938 163.246094 247.253906 163.246094 C 248.820312 163.246094 250.035156 162.753906 250.90625 161.769531 C 251.773438 160.789062 252.210938 159.429688 252.210938 157.691406 L 252.210938 150.257812 C 252.210938 148.554688 251.453125 147.699219 249.941406 147.699219 Z M 249.941406 147.699219 " clip-rule="nonzero"/></clipPath><clipPath id="b0ef6b2481"><path d="M 0.996094 0.386719 L 18 0.386719 L 18 17.007812 L 0.996094 17.007812 Z M 0.996094 0.386719 " clip-rule="nonzero"/></clipPath><clipPath id="8cd1749628"><path d="M 12.941406 0.699219 C 12.890625 0.699219 12.863281 0.648438 12.863281 0.542969 C 12.863281 0.441406 12.890625 0.386719 12.941406 0.386719 L 14.0625 0.414062 C 14.6875 0.449219 15.183594 0.464844 15.546875 0.464844 C 15.84375 0.464844 16.269531 0.449219 16.828125 0.414062 L 17.921875 0.386719 C 17.957031 0.386719 17.972656 0.441406 17.972656 0.542969 C 17.972656 0.648438 17.957031 0.699219 17.921875 0.699219 C 16.53125 0.699219 15.835938 1.554688 15.835938 3.257812 L 15.835938 10.664062 C 15.835938 12.664062 15.277344 14.222656 14.167969 15.34375 C 13.050781 16.464844 11.558594 17.027344 9.679688 17.027344 C 8.394531 17.027344 7.269531 16.773438 6.304688 16.269531 C 5.335938 15.765625 4.589844 15.050781 4.058594 14.117188 C 3.53125 13.191406 3.265625 12.097656 3.265625 10.847656 L 3.265625 2.5 C 3.265625 1.980469 3.210938 1.597656 3.109375 1.351562 C 3.003906 1.109375 2.800781 0.941406 2.496094 0.84375 C 2.191406 0.75 1.707031 0.699219 1.046875 0.699219 C 1.011719 0.699219 0.996094 0.648438 0.996094 0.542969 C 0.996094 0.441406 1.011719 0.386719 1.046875 0.386719 L 2.324219 0.414062 C 3.054688 0.449219 3.648438 0.464844 4.097656 0.464844 C 4.585938 0.464844 5.195312 0.449219 5.925781 0.414062 L 7.175781 0.386719 C 7.226562 0.386719 7.253906 0.441406 7.253906 0.542969 C 7.253906 0.648438 7.226562 0.699219 7.175781 0.699219 C 6.535156 0.699219 6.054688 0.753906 5.742188 0.855469 C 5.429688 0.960938 5.21875 1.140625 5.117188 1.390625 C 5.011719 1.644531 4.960938 2.03125 4.960938 2.550781 L 4.960938 9.933594 C 4.960938 11.96875 5.425781 13.527344 6.355469 14.613281 C 7.285156 15.703125 8.585938 16.246094 10.253906 16.246094 C 11.820312 16.246094 13.035156 15.753906 13.90625 14.769531 C 14.773438 13.789062 15.210938 12.429688 15.210938 10.691406 L 15.210938 3.257812 C 15.210938 1.554688 14.453125 0.699219 12.941406 0.699219 Z M 12.941406 0.699219 " clip-rule="nonzero"/></clipPath><clipPath id="1fc2179a2b"><rect x="0" width="18" y="0" height="18"/></clipPath><clipPath id="ce9e7a6241"><path d="M 258.863281 146.609375 L 273.53125 146.609375 L 273.53125 163.664062 L 258.863281 163.664062 Z M 258.863281 146.609375 " clip-rule="nonzero"/></clipPath><clipPath id="c6a51afd7c"><path d="M 260.386719 148.71875 C 259.84375 149.273438 259.449219 150.21875 259.207031 151.550781 C 259.207031 151.585938 259.15625 151.605469 259.0625 151.605469 C 258.96875 151.605469 258.917969 151.585938 258.917969 151.550781 C 258.988281 150.929688 259.066406 150.113281 259.152344 149.109375 C 259.238281 148.105469 259.28125 147.351562 259.28125 146.847656 C 259.28125 146.761719 259.332031 146.71875 259.425781 146.71875 C 259.519531 146.71875 259.570312 146.761719 259.570312 146.847656 C 259.570312 147.230469 260.035156 147.417969 260.972656 147.417969 C 262.445312 147.472656 264.1875 147.496094 266.195312 147.496094 C 267.21875 147.496094 268.300781 147.480469 269.445312 147.445312 L 271.210938 147.417969 C 271.835938 147.417969 272.300781 147.375 272.601562 147.289062 C 272.90625 147.203125 273.101562 147.03125 273.1875 146.769531 C 273.203125 146.703125 273.253906 146.667969 273.34375 146.667969 C 273.429688 146.667969 273.472656 146.703125 273.472656 146.769531 C 273.421875 147.273438 273.371094 148.035156 273.316406 149.058594 C 273.265625 150.078125 273.238281 150.910156 273.238281 151.550781 C 273.238281 151.585938 273.1875 151.605469 273.082031 151.605469 C 272.980469 151.605469 272.925781 151.585938 272.925781 151.550781 C 272.875 150.199219 272.597656 149.253906 272.097656 148.707031 C 271.59375 148.160156 270.761719 147.886719 269.601562 147.886719 C 268.820312 147.886719 268.265625 147.921875 267.9375 147.992188 C 267.609375 148.0625 267.382812 148.207031 267.261719 148.433594 C 267.140625 148.660156 267.078125 149.039062 267.078125 149.578125 L 267.078125 161.558594 C 267.078125 162.09375 267.140625 162.484375 267.261719 162.726562 C 267.382812 162.96875 267.617188 163.132812 267.964844 163.222656 C 268.308594 163.308594 268.855469 163.351562 269.601562 163.351562 C 269.652344 163.351562 269.679688 163.402344 269.679688 163.507812 C 269.679688 163.613281 269.652344 163.664062 269.601562 163.664062 C 269.03125 163.664062 268.570312 163.652344 268.222656 163.636719 L 266.195312 163.613281 L 264.246094 163.636719 C 263.898438 163.652344 263.425781 163.664062 262.816406 163.664062 C 262.78125 163.664062 262.765625 163.613281 262.765625 163.507812 C 262.765625 163.402344 262.78125 163.351562 262.816406 163.351562 C 263.5625 163.351562 264.109375 163.308594 264.453125 163.222656 C 264.800781 163.132812 265.039062 162.964844 265.167969 162.714844 C 265.300781 162.464844 265.363281 162.078125 265.363281 161.558594 L 265.363281 149.523438 C 265.363281 148.988281 265.304688 148.609375 265.183594 148.394531 C 265.0625 148.175781 264.835938 148.039062 264.507812 147.980469 C 264.175781 147.917969 263.625 147.886719 262.84375 147.886719 C 261.75 147.886719 260.933594 148.164062 260.386719 148.71875 Z M 260.386719 148.71875 " clip-rule="nonzero"/></clipPath><clipPath id="4502f97991"><path d="M 0.863281 0.609375 L 15.53125 0.609375 L 15.53125 17.664062 L 0.863281 17.664062 Z M 0.863281 0.609375 " clip-rule="nonzero"/></clipPath><clipPath id="fbc1ade909"><path d="M 2.386719 2.71875 C 1.84375 3.273438 1.449219 4.21875 1.207031 5.550781 C 1.207031 5.585938 1.15625 5.605469 1.0625 5.605469 C 0.96875 5.605469 0.917969 5.585938 0.917969 5.550781 C 0.988281 4.929688 1.066406 4.113281 1.152344 3.109375 C 1.238281 2.105469 1.28125 1.351562 1.28125 0.847656 C 1.28125 0.761719 1.332031 0.71875 1.425781 0.71875 C 1.519531 0.71875 1.570312 0.761719 1.570312 0.847656 C 1.570312 1.230469 2.035156 1.417969 2.972656 1.417969 C 4.445312 1.472656 6.1875 1.496094 8.195312 1.496094 C 9.21875 1.496094 10.300781 1.480469 11.445312 1.445312 L 13.210938 1.417969 C 13.835938 1.417969 14.300781 1.375 14.601562 1.289062 C 14.90625 1.203125 15.101562 1.03125 15.1875 0.769531 C 15.203125 0.703125 15.253906 0.667969 15.34375 0.667969 C 15.429688 0.667969 15.472656 0.703125 15.472656 0.769531 C 15.421875 1.273438 15.371094 2.035156 15.316406 3.058594 C 15.265625 4.078125 15.238281 4.910156 15.238281 5.550781 C 15.238281 5.585938 15.1875 5.605469 15.082031 5.605469 C 14.980469 5.605469 14.925781 5.585938 14.925781 5.550781 C 14.875 4.199219 14.597656 3.253906 14.097656 2.707031 C 13.59375 2.160156 12.761719 1.886719 11.601562 1.886719 C 10.820312 1.886719 10.265625 1.921875 9.9375 1.992188 C 9.609375 2.0625 9.382812 2.207031 9.261719 2.433594 C 9.140625 2.660156 9.078125 3.039062 9.078125 3.578125 L 9.078125 15.558594 C 9.078125 16.09375 9.140625 16.484375 9.261719 16.726562 C 9.382812 16.96875 9.617188 17.132812 9.964844 17.222656 C 10.308594 17.308594 10.855469 17.351562 11.601562 17.351562 C 11.652344 17.351562 11.679688 17.402344 11.679688 17.507812 C 11.679688 17.613281 11.652344 17.664062 11.601562 17.664062 C 11.03125 17.664062 10.570312 17.652344 10.222656 17.636719 L 8.195312 17.613281 L 6.246094 17.636719 C 5.898438 17.652344 5.425781 17.664062 4.816406 17.664062 C 4.78125 17.664062 4.765625 17.613281 4.765625 17.507812 C 4.765625 17.402344 4.78125 17.351562 4.816406 17.351562 C 5.5625 17.351562 6.109375 17.308594 6.453125 17.222656 C 6.800781 17.132812 7.039062 16.964844 7.167969 16.714844 C 7.300781 16.464844 7.363281 16.078125 7.363281 15.558594 L 7.363281 3.523438 C 7.363281 2.988281 7.304688 2.609375 7.183594 2.394531 C 7.0625 2.175781 6.835938 2.039062 6.507812 1.980469 C 6.175781 1.917969 5.625 1.886719 4.84375 1.886719 C 3.75 1.886719 2.933594 2.164062 2.386719 2.71875 Z M 2.386719 2.71875 " clip-rule="nonzero"/></clipPath><clipPath id="d8943d189a"><rect x="0" width="16" y="0" height="18"/></clipPath><clipPath id="1e86e4b4ee"><path d="M 277.796875 147.335938 L 295.859375 147.335938 L 295.859375 163.679688 L 277.796875 163.679688 Z M 277.796875 147.335938 " clip-rule="nonzero"/></clipPath><clipPath id="1f24b50f83"><path d="M 295.824219 163.523438 C 295.824219 163.628906 295.796875 163.679688 295.746094 163.679688 C 295.207031 163.679688 294.78125 163.671875 294.46875 163.652344 L 292.671875 163.628906 L 290.742188 163.652344 C 290.449219 163.671875 290.039062 163.679688 289.519531 163.679688 C 289.464844 163.679688 289.441406 163.628906 289.441406 163.523438 C 289.441406 163.417969 289.464844 163.367188 289.519531 163.367188 C 290.195312 163.367188 290.691406 163.324219 291.003906 163.238281 C 291.316406 163.152344 291.527344 162.980469 291.640625 162.730469 C 291.753906 162.476562 291.8125 162.089844 291.8125 161.570312 L 291.8125 155.472656 L 281.808594 155.472656 L 281.808594 161.570312 C 281.808594 162.089844 281.863281 162.476562 281.976562 162.730469 C 282.089844 162.980469 282.304688 163.152344 282.613281 163.238281 C 282.929688 163.324219 283.421875 163.367188 284.101562 163.367188 C 284.136719 163.367188 284.152344 163.417969 284.152344 163.523438 C 284.152344 163.628906 284.136719 163.679688 284.101562 163.679688 C 283.5625 163.679688 283.136719 163.671875 282.824219 163.652344 L 280.949219 163.628906 L 279.152344 163.652344 C 278.835938 163.671875 278.402344 163.679688 277.847656 163.679688 C 277.8125 163.679688 277.796875 163.628906 277.796875 163.523438 C 277.796875 163.417969 277.8125 163.367188 277.847656 163.367188 C 278.507812 163.367188 279 163.324219 279.320312 163.238281 C 279.640625 163.152344 279.859375 162.980469 279.972656 162.730469 C 280.085938 162.476562 280.140625 162.089844 280.140625 161.570312 L 280.140625 149.507812 C 280.140625 148.988281 280.085938 148.605469 279.972656 148.363281 C 279.859375 148.121094 279.644531 147.949219 279.332031 147.855469 C 279.019531 147.757812 278.535156 147.710938 277.875 147.710938 C 277.839844 147.710938 277.824219 147.660156 277.824219 147.554688 C 277.824219 147.449219 277.839844 147.398438 277.875 147.398438 L 279.203125 147.425781 C 279.933594 147.460938 280.515625 147.476562 280.949219 147.476562 C 281.453125 147.476562 282.085938 147.460938 282.851562 147.425781 L 284.101562 147.398438 C 284.136719 147.398438 284.152344 147.449219 284.152344 147.554688 C 284.152344 147.660156 284.136719 147.710938 284.101562 147.710938 C 283.441406 147.710938 282.949219 147.761719 282.628906 147.867188 C 282.304688 147.972656 282.089844 148.152344 281.976562 148.402344 C 281.863281 148.652344 281.808594 149.039062 281.808594 149.5625 L 281.808594 154.925781 L 291.8125 154.925781 L 291.8125 149.5625 C 291.8125 149.039062 291.753906 148.652344 291.640625 148.402344 C 291.527344 148.152344 291.316406 147.972656 291.003906 147.867188 C 290.691406 147.761719 290.195312 147.710938 289.519531 147.710938 C 289.464844 147.710938 289.441406 147.660156 289.441406 147.554688 C 289.441406 147.449219 289.464844 147.398438 289.519531 147.398438 L 290.742188 147.425781 C 291.507812 147.460938 292.148438 147.476562 292.671875 147.476562 C 293.140625 147.476562 293.738281 147.460938 294.46875 147.425781 L 295.746094 147.398438 C 295.796875 147.398438 295.824219 147.449219 295.824219 147.554688 C 295.824219 147.660156 295.796875 147.710938 295.746094 147.710938 C 295.085938 147.710938 294.597656 147.757812 294.285156 147.855469 C 293.972656 147.949219 293.761719 148.121094 293.648438 148.363281 C 293.535156 148.605469 293.476562 148.988281 293.476562 149.507812 L 293.476562 161.570312 C 293.476562 162.089844 293.535156 162.476562 293.648438 162.730469 C 293.761719 162.980469 293.972656 163.152344 294.285156 163.238281 C 294.597656 163.324219 295.085938 163.367188 295.746094 163.367188 C 295.796875 163.367188 295.824219 163.417969 295.824219 163.523438 Z M 295.824219 163.523438 " clip-rule="nonzero"/></clipPath><clipPath id="ba6f458360"><path d="M 0.796875 0.335938 L 18.859375 0.335938 L 18.859375 16.679688 L 0.796875 16.679688 Z M 0.796875 0.335938 " clip-rule="nonzero"/></clipPath><clipPath id="0fabcf4803"><path d="M 18.824219 16.523438 C 18.824219 16.628906 18.796875 16.679688 18.746094 16.679688 C 18.207031 16.679688 17.78125 16.671875 17.46875 16.652344 L 15.671875 16.628906 L 13.742188 16.652344 C 13.449219 16.671875 13.039062 16.679688 12.519531 16.679688 C 12.464844 16.679688 12.441406 16.628906 12.441406 16.523438 C 12.441406 16.417969 12.464844 16.367188 12.519531 16.367188 C 13.195312 16.367188 13.691406 16.324219 14.003906 16.238281 C 14.316406 16.152344 14.527344 15.980469 14.640625 15.730469 C 14.753906 15.476562 14.8125 15.089844 14.8125 14.570312 L 14.8125 8.472656 L 4.808594 8.472656 L 4.808594 14.570312 C 4.808594 15.089844 4.863281 15.476562 4.976562 15.730469 C 5.089844 15.980469 5.304688 16.152344 5.613281 16.238281 C 5.929688 16.324219 6.421875 16.367188 7.101562 16.367188 C 7.136719 16.367188 7.152344 16.417969 7.152344 16.523438 C 7.152344 16.628906 7.136719 16.679688 7.101562 16.679688 C 6.5625 16.679688 6.136719 16.671875 5.824219 16.652344 L 3.949219 16.628906 L 2.152344 16.652344 C 1.835938 16.671875 1.402344 16.679688 0.847656 16.679688 C 0.8125 16.679688 0.796875 16.628906 0.796875 16.523438 C 0.796875 16.417969 0.8125 16.367188 0.847656 16.367188 C 1.507812 16.367188 2 16.324219 2.320312 16.238281 C 2.640625 16.152344 2.859375 15.980469 2.972656 15.730469 C 3.085938 15.476562 3.140625 15.089844 3.140625 14.570312 L 3.140625 2.507812 C 3.140625 1.988281 3.085938 1.605469 2.972656 1.363281 C 2.859375 1.121094 2.644531 0.949219 2.332031 0.855469 C 2.019531 0.757812 1.535156 0.710938 0.875 0.710938 C 0.839844 0.710938 0.824219 0.660156 0.824219 0.554688 C 0.824219 0.449219 0.839844 0.398438 0.875 0.398438 L 2.203125 0.425781 C 2.933594 0.460938 3.515625 0.476562 3.949219 0.476562 C 4.453125 0.476562 5.085938 0.460938 5.851562 0.425781 L 7.101562 0.398438 C 7.136719 0.398438 7.152344 0.449219 7.152344 0.554688 C 7.152344 0.660156 7.136719 0.710938 7.101562 0.710938 C 6.441406 0.710938 5.949219 0.761719 5.628906 0.867188 C 5.304688 0.972656 5.089844 1.152344 4.976562 1.402344 C 4.863281 1.652344 4.808594 2.039062 4.808594 2.5625 L 4.808594 7.925781 L 14.8125 7.925781 L 14.8125 2.5625 C 14.8125 2.039062 14.753906 1.652344 14.640625 1.402344 C 14.527344 1.152344 14.316406 0.972656 14.003906 0.867188 C 13.691406 0.761719 13.195312 0.710938 12.519531 0.710938 C 12.464844 0.710938 12.441406 0.660156 12.441406 0.554688 C 12.441406 0.449219 12.464844 0.398438 12.519531 0.398438 L 13.742188 0.425781 C 14.507812 0.460938 15.148438 0.476562 15.671875 0.476562 C 16.140625 0.476562 16.738281 0.460938 17.46875 0.425781 L 18.746094 0.398438 C 18.796875 0.398438 18.824219 0.449219 18.824219 0.554688 C 18.824219 0.660156 18.796875 0.710938 18.746094 0.710938 C 18.085938 0.710938 17.597656 0.757812 17.285156 0.855469 C 16.972656 0.949219 16.761719 1.121094 16.648438 1.363281 C 16.535156 1.605469 16.476562 1.988281 16.476562 2.507812 L 16.476562 14.570312 C 16.476562 15.089844 16.535156 15.476562 16.648438 15.730469 C 16.761719 15.980469 16.972656 16.152344 17.285156 16.238281 C 17.597656 16.324219 18.085938 16.367188 18.746094 16.367188 C 18.796875 16.367188 18.824219 16.417969 18.824219 16.523438 Z M 18.824219 16.523438 " clip-rule="nonzero"/></clipPath><clipPath id="66b58ed51f"><rect x="0" width="19" y="0" height="17"/></clipPath></defs><g clip-path="url(#bf994ac394)"><path fill="#ffffff" d="M 177.195312 1.890625 C 142.085938 4.859375 145.730469 94.527344 185.605469 82.78125 C 213.058594 74.695312 212.265625 -1.074219 177.195312 1.890625 M 174.597656 0.582031 C 227.519531 -5.484375 228.308594 88.917969 176.363281 85.15625 C 132.652344 81.988281 132.488281 5.40625 174.597656 0.582031 " fill-opacity="1" fill-rule="nonzero"/></g><g clip-path="url(#ac674bbba8)"><path fill="#ffffff" d="M 262.902344 1.851562 C 231.792969 4.878906 231.5625 75.457031 259.164062 82.875 C 299.878906 93.816406 301.773438 -1.933594 262.902344 1.851562 M 260.972656 0.566406 C 311.167969 -4.761719 314.191406 81.792969 267.878906 85.125 C 219.085938 88.636719 216.066406 5.332031 260.972656 0.566406 " fill-opacity="1" fill-rule="nonzero"/></g><g clip-path="url(#fc1e543dfa)"><path fill="#ffffff" d="M 98.273438 33.492188 C 94.152344 34.050781 89.269531 36.359375 85.820312 38.613281 C 83.289062 40.269531 79.464844 42.722656 79.425781 45.90625 C 79.351562 52.097656 80.695312 63.992188 82.730469 69.835938 C 89.390625 88.941406 113.578125 87.902344 118.859375 68.699219 C 123.074219 53.378906 118.984375 30.683594 98.273438 33.492188 M 127.167969 13.296875 L 119.339844 16.535156 C 116.105469 7.074219 108.460938 -0.667969 97.636719 2.511719 C 83.78125 6.582031 79.78125 28.753906 80.152344 41.074219 C 87.59375 35.363281 95.472656 30.839844 105.316406 31.367188 C 139.304688 33.1875 140.519531 81.597656 104.554688 84.90625 C 69.488281 88.136719 63.183594 48.996094 72.472656 23.480469 C 80.042969 2.691406 103.371094 -7.769531 121.949219 7.164062 C 122.863281 7.894531 127.75 12.503906 127.167969 13.296875 " fill-opacity="1" fill-rule="nonzero"/></g><g clip-path="url(#5e44720018)"><g clip-path="url(#35a493dbf8)"><g transform="matrix(1, 0, 0, 1, 0, 0.000000000000012869)"><g clip-path="url(#f5a2bd0744)"><g clip-path="url(#a532109965)"><g clip-path="url(#b6bc38f5a0)"><path fill="#ffffff" d="M 0.855469 -0.0703125 L 59.332031 -0.0703125 L 59.332031 83.257812 L 0.855469 83.257812 Z M 0.855469 -0.0703125 " fill-opacity="1" fill-rule="nonzero"/></g></g></g></g></g></g><g clip-path="url(#c89f90e573)"><path fill="#ffffff" d="M 219.335938 82.363281 C 219.78125 81.476562 219.929688 80.300781 220.078125 79.414062 C 220.226562 78.679688 219.335938 78.089844 218.59375 78.238281 C 216.519531 79.121094 214.890625 80.742188 213.40625 82.363281 C 208.515625 87.519531 204.664062 93.414062 201.105469 99.601562 C 209.40625 96.214844 215.335938 90.171875 219.335938 82.363281 M 185.394531 136.738281 C 189.394531 132.757812 191.46875 127.894531 191.617188 122.738281 C 191.46875 121.410156 191.46875 120.527344 191.46875 119.644531 C 191.324219 119.054688 191.46875 118.167969 190.578125 118.023438 C 189.691406 117.726562 189.394531 118.464844 189.097656 119.054688 C 186.726562 123.621094 184.949219 128.484375 183.613281 133.496094 C 183.464844 134.230469 183.316406 134.820312 183.316406 135.558594 C 183.316406 136.148438 183.171875 137.03125 184.058594 137.179688 C 184.503906 137.179688 185.097656 137.03125 185.394531 136.738281 M 180.945312 137.03125 C 180.648438 135.113281 181.09375 133.347656 181.6875 131.429688 C 183.613281 124.800781 186.429688 118.464844 189.988281 112.570312 C 194.582031 104.761719 199.175781 97.097656 204.511719 89.878906 C 207.035156 86.488281 209.40625 83.097656 212.515625 80.300781 C 214 78.972656 215.628906 77.648438 217.707031 76.910156 C 219.039062 76.320312 220.375 76.171875 221.558594 77.203125 C 222.746094 78.238281 222.746094 79.710938 222.300781 81.035156 C 221.707031 83.097656 220.667969 84.867188 219.484375 86.636719 C 215.628906 92.234375 210.886719 96.949219 204.808594 100.191406 C 203.921875 100.632812 203.179688 101.078125 202.4375 101.371094 C 197.101562 104.316406 196.65625 104.761719 193.839844 111.832031 C 199.027344 111.242188 203.476562 110.066406 208.070312 108.738281 C 212.371094 107.558594 216.519531 105.203125 221.261719 104.171875 C 220.820312 106.085938 219.632812 106.085938 218.742188 106.382812 C 211.480469 109.476562 204.070312 111.6875 196.363281 112.863281 C 195.621094 113.011719 194.878906 113.011719 194.285156 113.160156 C 193.25 113.308594 192.65625 114.042969 192.953125 115.074219 C 193.695312 117.726562 193.988281 120.527344 193.839844 123.179688 C 193.695312 128.484375 191.617188 132.90625 188.207031 136.738281 C 186.875 138.210938 185.246094 139.242188 183.171875 138.945312 C 181.984375 138.945312 181.242188 138.210938 180.945312 137.03125 " fill-opacity="1" fill-rule="nonzero"/></g><g clip-path="url(#e0f22ae544)"><path fill="#ffffff" d="M 260.003906 72.449219 C 259.414062 71.570312 258.382812 71.863281 257.644531 72.300781 C 256.167969 73.035156 254.546875 73.765625 253.070312 74.644531 C 243.480469 80.507812 235.070312 87.835938 227.988281 96.628906 C 227.101562 97.800781 226.070312 98.824219 225.625 100.4375 C 226.363281 100.289062 226.953125 100.4375 227.542969 100.144531 C 237.28125 94.722656 246.726562 88.566406 254.695312 80.800781 C 256.613281 78.898438 258.234375 76.992188 259.5625 74.792969 C 260.003906 74.0625 260.59375 73.183594 260.003906 72.449219 M 262.660156 73.183594 C 262.21875 74.792969 261.332031 75.964844 260.449219 77.285156 C 258.234375 80.214844 255.726562 82.707031 252.921875 85.050781 C 244.660156 92.085938 235.363281 97.945312 225.625 102.78125 C 223.414062 103.953125 221.789062 105.417969 220.757812 107.765625 C 218.394531 112.304688 216.035156 116.847656 214.855469 121.976562 C 214.414062 123.738281 213.96875 125.496094 215.445312 126.8125 C 216.921875 128.277344 218.691406 127.691406 220.3125 127.105469 C 225.332031 125.347656 229.90625 122.417969 234.183594 119.195312 C 240.382812 114.503906 246.726562 109.960938 252.921875 105.417969 C 254.101562 104.6875 254.988281 102.929688 256.90625 103.953125 C 256.613281 105.566406 255.136719 106.003906 254.101562 106.738281 C 247.90625 111.425781 241.5625 115.96875 235.363281 120.660156 C 231.234375 123.738281 226.808594 126.375 221.789062 128.132812 C 219.722656 128.863281 217.660156 129.742188 215.296875 128.863281 C 212.9375 127.839844 211.902344 126.519531 212.050781 123.738281 C 212.496094 120.660156 213.527344 117.433594 214.855469 114.210938 C 219.132812 104.980469 224.59375 96.480469 231.824219 89.152344 C 237.429688 83.730469 243.332031 78.601562 249.972656 74.5 C 251.890625 73.328125 254.101562 72.300781 256.316406 71.277344 C 257.792969 70.398438 259.265625 70.398438 260.890625 70.542969 C 262.21875 70.691406 262.957031 72.007812 262.660156 73.183594 " fill-opacity="1" fill-rule="nonzero"/></g><g clip-path="url(#bcfcd566fe)"><path fill="#ffffff" d="M 254.214844 113.195312 C 257.617188 111.394531 260.277344 108.691406 262.9375 105.992188 C 263.234375 105.539062 263.382812 104.941406 263.527344 104.640625 C 263.527344 102.988281 261.609375 101.636719 260.128906 102.386719 C 256.136719 104.339844 253.921875 107.640625 252.738281 111.996094 C 252.589844 112.296875 252.886719 112.894531 253.179688 113.195312 C 253.328125 113.347656 253.921875 113.347656 254.214844 113.195312 M 264.121094 112.144531 C 264.121094 111.09375 264.269531 109.894531 264.5625 107.640625 C 262.199219 109.59375 260.574219 110.945312 259.09375 112.296875 C 257.46875 113.644531 255.695312 114.695312 253.625 115.296875 C 251.40625 116.046875 249.632812 114.546875 250.078125 112.445312 C 251.113281 107.339844 253.773438 103.4375 258.503906 101.1875 C 260.128906 100.4375 262.050781 100.285156 263.527344 101.1875 C 265.15625 102.089844 266.335938 102.238281 267.816406 101.335938 C 268.554688 100.886719 269.292969 101.789062 269 102.839844 C 268.40625 105.238281 267.519531 107.640625 266.929688 109.894531 C 266.484375 111.09375 266.335938 112.296875 266.78125 113.496094 C 267.222656 114.996094 268.554688 115.898438 270.03125 115.296875 C 271.214844 114.847656 272.546875 114.097656 273.730469 113.496094 C 278.605469 110.945312 279.640625 110.34375 283.929688 106.742188 L 287.773438 104.039062 C 287.917969 103.890625 288.511719 104.039062 288.660156 104.191406 C 288.804688 104.339844 288.804688 104.789062 288.660156 105.089844 C 288.660156 105.390625 288.363281 105.691406 288.066406 105.992188 C 282.746094 110.34375 280.675781 111.84375 274.46875 115.148438 C 272.839844 115.898438 271.066406 116.796875 269.144531 116.796875 C 265.894531 116.949219 264.121094 115.296875 264.121094 112.144531 " fill-opacity="1" fill-rule="nonzero"/></g><g clip-path="url(#867601d943)"><g clip-path="url(#652fd11604)"><g transform="matrix(1, 0, 0, 1, 266, 79)"><g clip-path="url(#1dfb0db206)"><g clip-path="url(#93c4790caf)"><g clip-path="url(#9701c68286)"><path fill="#ffffff" d="M 0.515625 0.238281 L 65.382812 0.238281 L 65.382812 51.339844 L 0.515625 51.339844 Z M 0.515625 0.238281 " fill-opacity="1" fill-rule="nonzero"/></g></g></g></g></g></g><g clip-path="url(#a75fabbdbf)"><path fill="#ffffff" d="M 311.328125 115.417969 C 307.070312 116.609375 304.429688 119.738281 301.933594 123.164062 C 301.640625 123.609375 301.347656 124.355469 301.347656 125.101562 C 301.347656 125.546875 301.492188 126.144531 301.933594 126.441406 C 302.226562 126.589844 302.960938 126.738281 303.402344 126.441406 C 304.136719 126.144531 304.871094 125.546875 305.457031 124.953125 C 307.953125 122.121094 310.300781 119.289062 311.328125 115.417969 M 335.542969 104.242188 C 334.515625 105.285156 333.34375 105.433594 332.316406 105.882812 C 327.765625 107.671875 323.214844 109.308594 318.8125 111.097656 C 316.609375 111.839844 314.996094 113.183594 314.117188 115.417969 C 312.796875 118.695312 310.886719 121.675781 308.683594 124.355469 C 307.363281 125.996094 305.898438 127.335938 303.84375 127.929688 C 302.082031 128.527344 300.320312 128.082031 299.585938 127.039062 C 298.707031 125.695312 299 124.355469 299.585938 123.015625 C 301.054688 120.183594 303.402344 118.097656 305.898438 116.3125 C 307.660156 115.117188 309.417969 114.078125 311.179688 113.035156 C 312.5 112.289062 313.382812 111.394531 313.675781 109.90625 C 314.261719 107.671875 314.703125 105.433594 315.4375 103.351562 C 315.878906 101.859375 316.316406 100.371094 317.050781 99.03125 C 317.34375 98.136719 318.078125 97.691406 319.105469 97.691406 C 319.839844 97.691406 320.425781 97.839844 320.71875 98.582031 C 321.015625 99.179688 320.71875 99.773438 320.132812 99.773438 C 318.960938 100.074219 318.371094 100.816406 318.078125 101.859375 C 317.640625 103.945312 317.050781 105.882812 316.757812 107.96875 C 316.316406 109.605469 317.050781 110.054688 318.8125 109.457031 L 333.195312 104.09375 C 333.929688 103.796875 334.515625 103.648438 335.542969 104.242188 " fill-opacity="1" fill-rule="nonzero"/></g><g clip-path="url(#c1a34b0217)"><g clip-path="url(#a7963c907c)"><g transform="matrix(1, 0, 0, 1, 2, 112)"><g clip-path="url(#93ee70c763)"><g clip-path="url(#cd1ec1c3ac)"><g clip-path="url(#886dd061aa)"><path fill="#ffffff" d="M 0.300781 0.015625 L 192.996094 0.015625 L 192.996094 17.136719 L 0.300781 17.136719 Z M 0.300781 0.015625 " fill-opacity="1" fill-rule="nonzero"/></g></g></g></g></g></g><g clip-path="url(#9444d98728)"><path fill="#ffffff" d="M 11.011719 155.789062 L 16.792969 155.789062 L 13.730469 149.488281 Z M 23.753906 163.160156 C 23.753906 163.265625 23.71875 163.316406 23.648438 163.316406 C 23.316406 163.316406 22.800781 163.296875 22.105469 163.265625 C 21.40625 163.230469 20.902344 163.214844 20.585938 163.214844 C 20.203125 163.214844 19.714844 163.230469 19.121094 163.265625 C 18.5625 163.296875 18.136719 163.316406 17.839844 163.316406 C 17.769531 163.316406 17.734375 163.265625 17.734375 163.160156 C 17.734375 163.058594 17.769531 163.007812 17.839844 163.007812 C 18.484375 163.007812 18.957031 162.949219 19.253906 162.832031 C 19.550781 162.710938 19.699219 162.507812 19.699219 162.21875 C 19.699219 161.980469 19.585938 161.613281 19.355469 161.121094 L 17.027344 156.300781 L 10.800781 156.300781 L 9.152344 160.074219 C 8.90625 160.652344 8.785156 161.121094 8.785156 161.476562 C 8.785156 162.003906 9 162.394531 9.425781 162.640625 C 9.855469 162.886719 10.496094 163.007812 11.351562 163.007812 C 11.4375 163.007812 11.480469 163.058594 11.480469 163.160156 C 11.480469 163.265625 11.4375 163.316406 11.351562 163.316406 C 11.035156 163.316406 10.582031 163.296875 9.988281 163.265625 C 9.324219 163.230469 8.75 163.214844 8.261719 163.214844 C 7.808594 163.214844 7.285156 163.230469 6.691406 163.265625 C 6.167969 163.296875 5.734375 163.316406 5.382812 163.316406 C 5.296875 163.316406 5.253906 163.265625 5.253906 163.160156 C 5.253906 163.058594 5.296875 163.007812 5.382812 163.007812 C 5.871094 163.007812 6.285156 162.917969 6.628906 162.742188 C 6.96875 162.5625 7.289062 162.246094 7.59375 161.796875 C 7.898438 161.347656 8.234375 160.695312 8.601562 159.847656 L 14.125 147.140625 C 14.160156 147.089844 14.21875 147.066406 14.308594 147.066406 C 14.394531 147.066406 14.445312 147.089844 14.464844 147.140625 L 20.640625 159.820312 C 21.234375 161.078125 21.738281 161.925781 22.15625 162.359375 C 22.578125 162.792969 23.074219 163.007812 23.648438 163.007812 C 23.71875 163.007812 23.753906 163.058594 23.753906 163.160156 " fill-opacity="1" fill-rule="nonzero"/></g><g clip-path="url(#5b6f4578dd)"><g clip-path="url(#7e53203e10)"><g transform="matrix(1, 0, 0, 1, 25, 146)"><g clip-path="url(#be20b4ed73)"><g clip-path="url(#7e5ba4f3b0)"><g clip-path="url(#1c81af8d93)"><path fill="#ffffff" d="M 0.261719 0.667969 L 14.8125 0.667969 L 14.8125 17.664062 L 0.261719 17.664062 Z M 0.261719 0.667969 " fill-opacity="1" fill-rule="nonzero"/></g></g></g></g></g></g><g clip-path="url(#5c4a9fc426)"><g clip-path="url(#b33eb4e30b)"><g transform="matrix(1, 0, 0, 1, 53, 147)"><g clip-path="url(#3dc2695e39)"><g clip-path="url(#e67ffb4a6b)"><g clip-path="url(#21da190566)"><path fill="#ffffff" d="M 0.242188 0.15625 L 15.402344 0.15625 L 15.402344 16.976562 L 0.242188 16.976562 Z M 0.242188 0.15625 " fill-opacity="1" fill-rule="nonzero"/></g></g></g></g></g></g><g clip-path="url(#29a9ede1f4)"><g clip-path="url(#7c5f674b76)"><g transform="matrix(1, 0, 0, 1, 73, 147)"><g clip-path="url(#a0a44d9fce)"><g clip-path="url(#8326a93adf)"><g clip-path="url(#0ecd56b2f4)"><path fill="#ffffff" d="M 0.125 0.398438 L 18.121094 0.398438 L 18.121094 16.679688 L 0.125 16.679688 Z M 0.125 0.398438 " fill-opacity="1" fill-rule="nonzero"/></g></g></g></g></g></g><g clip-path="url(#f9ff81a003)"><path fill="#ffffff" d="M 100.171875 155.789062 L 105.957031 155.789062 L 102.894531 149.488281 Z M 112.917969 163.160156 C 112.917969 163.265625 112.878906 163.316406 112.8125 163.316406 C 112.480469 163.316406 111.964844 163.296875 111.269531 163.265625 C 110.570312 163.230469 110.0625 163.214844 109.75 163.214844 C 109.367188 163.214844 108.878906 163.230469 108.285156 163.265625 C 107.726562 163.296875 107.300781 163.316406 107.003906 163.316406 C 106.933594 163.316406 106.898438 163.265625 106.898438 163.160156 C 106.898438 163.058594 106.933594 163.007812 107.003906 163.007812 C 107.648438 163.007812 108.117188 162.949219 108.414062 162.832031 C 108.710938 162.710938 108.859375 162.507812 108.859375 162.21875 C 108.859375 161.980469 108.746094 161.613281 108.519531 161.121094 L 106.191406 156.300781 L 99.964844 156.300781 L 98.316406 160.074219 C 98.070312 160.652344 97.949219 161.121094 97.949219 161.476562 C 97.949219 162.003906 98.164062 162.394531 98.589844 162.640625 C 99.015625 162.886719 99.65625 163.007812 100.511719 163.007812 C 100.601562 163.007812 100.644531 163.058594 100.644531 163.160156 C 100.644531 163.265625 100.601562 163.316406 100.511719 163.316406 C 100.199219 163.316406 99.746094 163.296875 99.152344 163.265625 C 98.488281 163.230469 97.914062 163.214844 97.425781 163.214844 C 96.972656 163.214844 96.449219 163.230469 95.855469 163.265625 C 95.332031 163.296875 94.894531 163.316406 94.546875 163.316406 C 94.460938 163.316406 94.414062 163.265625 94.414062 163.160156 C 94.414062 163.058594 94.460938 163.007812 94.546875 163.007812 C 95.035156 163.007812 95.449219 162.917969 95.789062 162.742188 C 96.128906 162.5625 96.453125 162.246094 96.757812 161.796875 C 97.0625 161.347656 97.398438 160.695312 97.765625 159.847656 L 103.285156 147.140625 C 103.320312 147.089844 103.382812 147.066406 103.46875 147.066406 C 103.558594 147.066406 103.609375 147.089844 103.625 147.140625 L 109.800781 159.820312 C 110.394531 161.078125 110.902344 161.925781 111.320312 162.359375 C 111.738281 162.792969 112.234375 163.007812 112.8125 163.007812 C 112.878906 163.007812 112.917969 163.058594 112.917969 163.160156 " fill-opacity="1" fill-rule="nonzero"/></g><g clip-path="url(#085c5cfae0)"><g clip-path="url(#4e51cdd55d)"><g transform="matrix(1, 0, 0, 1, 116, 147)"><g clip-path="url(#9a43c8d3cc)"><g clip-path="url(#e1595513af)"><g clip-path="url(#c59920bb1b)"><path fill="#ffffff" d="M 0.300781 0.417969 L 17.628906 0.417969 L 17.628906 17.027344 L 0.300781 17.027344 Z M 0.300781 0.417969 " fill-opacity="1" fill-rule="nonzero"/></g></g></g></g></g></g><g clip-path="url(#71824812dd)"><g clip-path="url(#bc66c03bca)"><g transform="matrix(1, 0, 0, 1, 137, 147)"><g clip-path="url(#bc7ab16e51)"><g clip-path="url(#0d5661c000)"><g clip-path="url(#fa99d91f74)"><path fill="#ffffff" d="M 0.707031 0.417969 L 18.03125 0.417969 L 18.03125 17.027344 L 0.707031 17.027344 Z M 0.707031 0.417969 " fill-opacity="1" fill-rule="nonzero"/></g></g></g></g></g></g><g clip-path="url(#6c5200ffd7)"><g clip-path="url(#fe6b34e82d)"><g transform="matrix(1, 0, 0, 1, 159, 147)"><g clip-path="url(#067a0e6257)"><g clip-path="url(#4fbe74c8f7)"><g clip-path="url(#cfa24ac5e8)"><path fill="#ffffff" d="M 0.164062 0.398438 L 11.78125 0.398438 L 11.78125 16.691406 L 0.164062 16.691406 Z M 0.164062 0.398438 " fill-opacity="1" fill-rule="nonzero"/></g></g></g></g></g></g><g clip-path="url(#66af83ccf3)"><g clip-path="url(#4519dc87c8)"><g transform="matrix(1, 0, 0, 1, 175, 147)"><g clip-path="url(#544d9a80f1)"><g clip-path="url(#4308f6dcf0)"><g clip-path="url(#bb09489566)"><path fill="#ffffff" d="M 0.453125 0.398438 L 13.15625 0.398438 L 13.15625 16.675781 L 0.453125 16.675781 Z M 0.453125 0.398438 " fill-opacity="1" fill-rule="nonzero"/></g></g></g></g></g></g><g clip-path="url(#67bc664c44)"><g clip-path="url(#59261e6783)"><g transform="matrix(1, 0, 0, 1, 201, 147)"><g clip-path="url(#aace75148b)"><g clip-path="url(#3ee09bba82)"><g clip-path="url(#a6eb097181)"><path fill="#ffffff" d="M 0.363281 0.144531 L 9.945312 0.144531 L 9.945312 16.945312 L 0.363281 16.945312 Z M 0.363281 0.144531 " fill-opacity="1" fill-rule="nonzero"/></g></g></g></g></g></g><g clip-path="url(#3ba6054602)"><path fill="#ffffff" d="M 228.328125 162.816406 C 229.257812 162.238281 229.988281 161.382812 230.527344 160.257812 C 231.0625 159.132812 231.332031 157.796875 231.332031 156.246094 C 231.332031 154.59375 231.035156 153.125 230.4375 151.839844 C 229.839844 150.558594 229 149.554688 227.917969 148.832031 C 226.835938 148.113281 225.570312 147.75 224.121094 147.75 C 222.246094 147.75 220.777344 148.375 219.722656 149.625 C 218.664062 150.875 218.136719 152.589844 218.136719 154.769531 C 218.136719 156.421875 218.433594 157.929688 219.03125 159.296875 C 219.628906 160.660156 220.464844 161.730469 221.539062 162.515625 C 222.613281 163.296875 223.832031 163.6875 225.195312 163.6875 C 226.355469 163.6875 227.398438 163.398438 228.328125 162.816406 M 220.066406 163.09375 C 218.832031 162.328125 217.878906 161.292969 217.203125 159.980469 C 216.53125 158.671875 216.195312 157.242188 216.195312 155.695312 C 216.195312 153.882812 216.636719 152.328125 217.523438 151.035156 C 218.410156 149.742188 219.546875 148.773438 220.9375 148.121094 C 222.328125 147.46875 223.746094 147.144531 225.195312 147.144531 C 226.8125 147.144531 228.238281 147.535156 229.464844 148.320312 C 230.691406 149.101562 231.632812 150.136719 232.289062 151.417969 C 232.945312 152.703125 233.277344 154.066406 233.277344 155.507812 C 233.277344 157.109375 232.867188 158.578125 232.046875 159.914062 C 231.230469 161.253906 230.132812 162.308594 228.761719 163.082031 C 227.390625 163.855469 225.902344 164.242188 224.300781 164.242188 C 222.714844 164.242188 221.304688 163.859375 220.066406 163.09375 " fill-opacity="1" fill-rule="nonzero"/></g><g clip-path="url(#cde594c659)"><g clip-path="url(#766376651b)"><g transform="matrix(1, 0, 0, 1, 237, 147)"><g clip-path="url(#1fc2179a2b)"><g clip-path="url(#b0ef6b2481)"><g clip-path="url(#8cd1749628)"><path fill="#ffffff" d="M 0.996094 0.386719 L 17.960938 0.386719 L 17.960938 17.027344 L 0.996094 17.027344 Z M 0.996094 0.386719 " fill-opacity="1" fill-rule="nonzero"/></g></g></g></g></g></g><g clip-path="url(#ce9e7a6241)"><g clip-path="url(#c6a51afd7c)"><g transform="matrix(1, 0, 0, 1, 258, 146)"><g clip-path="url(#d8943d189a)"><g clip-path="url(#4502f97991)"><g clip-path="url(#fbc1ade909)"><path fill="#ffffff" d="M 0.917969 0.667969 L 15.472656 0.667969 L 15.472656 17.664062 L 0.917969 17.664062 Z M 0.917969 0.667969 " fill-opacity="1" fill-rule="nonzero"/></g></g></g></g></g></g><g clip-path="url(#1e86e4b4ee)"><g clip-path="url(#1f24b50f83)"><g transform="matrix(1, 0, 0, 1, 277, 147)"><g clip-path="url(#66b58ed51f)"><g clip-path="url(#ba6f458360)"><g clip-path="url(#0fabcf4803)"><path fill="#ffffff" d="M 0.796875 0.398438 L 18.792969 0.398438 L 18.792969 16.679688 L 0.796875 16.679688 Z M 0.796875 0.398438 " fill-opacity="1" fill-rule="nonzero"/></g></g></g></g></g></g></svg>