<svg xmlns="http://www.w3.org/2000/svg" xmlns:xlink="http://www.w3.org/1999/xlink" width="109" zoomAndPan="magnify" viewBox="0 0 81.75 398.999989" height="532" preserveAspectRatio="xMidYMid meet" version="1.0"><defs><clipPath id="5c70873cf2"><path d="M 8.65625 190.980469 L 72.210938 190.980469 L 72.210938 266.5 L 8.65625 266.5 Z M 8.65625 190.980469 " clip-rule="nonzero"/></clipPath><clipPath id="b3b48f540d"><path d="M 8.65625 285.765625 L 72.210938 285.765625 L 72.210938 361.285156 L 8.65625 361.285156 Z M 8.65625 285.765625 " clip-rule="nonzero"/></clipPath><clipPath id="8f96453422"><path d="M 12.9375 95.960938 L 68.269531 95.960938 L 68.269531 172.230469 L 12.9375 172.230469 Z M 12.9375 95.960938 " clip-rule="nonzero"/></clipPath><clipPath id="4cb0e3011b"><path d="M 15.679688 0.609375 L 68 0.609375 L 68 74.257812 L 15.679688 74.257812 Z M 15.679688 0.609375 " clip-rule="nonzero"/></clipPath><clipPath id="9e390b182a"><path d="M 15.679688 74.257812 C 16.800781 67.113281 21.433594 59.3125 26.152344 53.875 C 36.597656 41.832031 66.945312 29.089844 53.503906 8.425781 C 41.507812 -10.019531 8.015625 13.816406 32.207031 26.75 C 34.203125 28.152344 28.574219 32.222656 27.5625 33.203125 C 11.109375 23.574219 15.046875 5.394531 33.484375 1.390625 C 59.429688 -4.242188 79.054688 18.980469 54.523438 37.621094 C 41.945312 47.175781 24.203125 51.328125 18.53125 68.558594 C 35.085938 68.210938 51.972656 70.289062 67.902344 64.773438 L 64.101562 74.257812 Z M 15.679688 74.257812 " clip-rule="nonzero"/></clipPath><clipPath id="5da698ab29"><path d="M 0.679688 0.609375 L 53 0.609375 L 53 74.257812 L 0.679688 74.257812 Z M 0.679688 0.609375 " clip-rule="nonzero"/></clipPath><clipPath id="56d4aef9ae"><path d="M 0.679688 74.257812 C 1.800781 67.113281 6.433594 59.3125 11.152344 53.875 C 21.597656 41.832031 51.945312 29.089844 38.503906 8.425781 C 26.507812 -10.019531 -6.984375 13.816406 17.207031 26.75 C 19.203125 28.152344 13.574219 32.222656 12.5625 33.203125 C -3.890625 23.574219 0.046875 5.394531 18.484375 1.390625 C 44.429688 -4.242188 64.054688 18.980469 39.523438 37.621094 C 26.945312 47.175781 9.203125 51.328125 3.53125 68.558594 C 20.085938 68.210938 36.972656 70.289062 52.902344 64.773438 L 49.101562 74.257812 Z M 0.679688 74.257812 " clip-rule="nonzero"/></clipPath><clipPath id="30eb8c8e81"><rect x="0" width="53" y="0" height="75"/></clipPath><clipPath id="135badbf25"><path d="M 0 380.476562 L 13.554688 380.476562 L 13.554688 398.390625 L 0 398.390625 Z M 0 380.476562 " clip-rule="nonzero"/></clipPath><clipPath id="8a00298788"><path d="M 2.523438 381.578125 L 2.523438 382.382812 L 2.527344 382.382812 L 2.527344 389.546875 L 8.234375 389.546875 C 8.234375 389.546875 7.425781 390.65625 7.410156 390.644531 L 2.523438 390.644531 L 2.523438 398.421875 L -0.0664062 398.421875 L -0.0664062 380.480469 L 0.523438 380.476562 L 13.5 380.476562 L 12.089844 381.578125 Z M 2.523438 381.578125 " clip-rule="nonzero"/></clipPath><clipPath id="b1218dbbd9"><path d="M 0 0.476562 L 13.554688 0.476562 L 13.554688 18.390625 L 0 18.390625 Z M 0 0.476562 " clip-rule="nonzero"/></clipPath><clipPath id="08980d2bda"><path d="M 2.523438 1.578125 L 2.523438 2.382812 L 2.527344 2.382812 L 2.527344 9.546875 L 8.234375 9.546875 C 8.234375 9.546875 7.425781 10.65625 7.410156 10.644531 L 2.523438 10.644531 L 2.523438 18.421875 L -0.0664062 18.421875 L -0.0664062 0.480469 L 0.523438 0.476562 L 13.5 0.476562 L 12.089844 1.578125 Z M 2.523438 1.578125 " clip-rule="nonzero"/></clipPath><clipPath id="4e5ea2a61b"><rect x="0" width="14" y="0" height="19"/></clipPath><clipPath id="758a9074e8"><path d="M 17.175781 380.5 L 29.183594 380.5 L 29.183594 398.390625 L 17.175781 398.390625 Z M 17.175781 380.5 " clip-rule="nonzero"/></clipPath><clipPath id="d9f41fc495"><path d="M 19.929688 397.34375 L 29.183594 397.34375 C 29.183594 397.34375 28.242188 398.421875 28.21875 398.445312 L 17.222656 398.445312 L 17.222656 381.566406 L 17.230469 380.5 L 18.945312 380.5 L 18.941406 380.5 L 19.929688 380.5 Z M 19.929688 397.34375 " clip-rule="nonzero"/></clipPath><clipPath id="4d0ee4a962"><path d="M 0.175781 0.5 L 12.183594 0.5 L 12.183594 18.390625 L 0.175781 18.390625 Z M 0.175781 0.5 " clip-rule="nonzero"/></clipPath><clipPath id="b676913bd2"><path d="M 2.929688 17.34375 L 12.183594 17.34375 C 12.183594 17.34375 11.242188 18.421875 11.21875 18.445312 L 0.222656 18.445312 L 0.222656 1.566406 L 0.230469 0.5 L 1.945312 0.5 L 1.941406 0.5 L 2.929688 0.5 Z M 2.929688 17.34375 " clip-rule="nonzero"/></clipPath><clipPath id="fb0eb0df15"><rect x="0" width="13" y="0" height="19"/></clipPath><clipPath id="73d30c6e8d"><path d="M 32.195312 380.515625 L 48.644531 380.515625 L 48.644531 398.390625 L 32.195312 398.390625 Z M 32.195312 380.515625 " clip-rule="nonzero"/></clipPath><clipPath id="712eea44d7"><path d="M 49.167969 380.476562 L 65.140625 380.476562 L 65.140625 398.390625 L 49.167969 398.390625 Z M 49.167969 380.476562 " clip-rule="nonzero"/></clipPath><clipPath id="2b53d21ecc"><path d="M 65.140625 380.476562 L 64.785156 381.578125 L 58.515625 381.578125 L 58.515625 398.398438 L 55.804688 398.398438 L 55.804688 381.578125 L 49.535156 381.578125 L 49.167969 380.476562 Z M 65.140625 380.476562 " clip-rule="nonzero"/></clipPath><clipPath id="ba2d8a2d7c"><path d="M 0.167969 0.476562 L 16.140625 0.476562 L 16.140625 18.390625 L 0.167969 18.390625 Z M 0.167969 0.476562 " clip-rule="nonzero"/></clipPath><clipPath id="a84abaa74b"><path d="M 16.140625 0.476562 L 15.785156 1.578125 L 9.515625 1.578125 L 9.515625 18.398438 L 6.804688 18.398438 L 6.804688 1.578125 L 0.535156 1.578125 L 0.167969 0.476562 Z M 16.140625 0.476562 " clip-rule="nonzero"/></clipPath><clipPath id="059c1e651e"><rect x="0" width="17" y="0" height="19"/></clipPath><clipPath id="07f728054c"><path d="M 68.085938 380.582031 L 81.5 380.582031 L 81.5 398.390625 L 68.085938 398.390625 Z M 68.085938 380.582031 " clip-rule="nonzero"/></clipPath><clipPath id="f7e455fce5"><path d="M 81.921875 394.226562 C 81.921875 397.644531 78.351562 398.886719 75.035156 398.886719 C 71.554688 398.886719 69.054688 397.441406 68.351562 394.582031 L 70.074219 394.238281 C 70.5 396.140625 71.90625 397.800781 75.492188 397.800781 C 77.652344 397.800781 79.515625 396.5 79.527344 394.496094 C 79.542969 392.515625 77.378906 391.824219 74.253906 390.691406 C 71.492188 389.695312 68.140625 388.632812 68.140625 385.304688 C 68.140625 383.476562 70.046875 380.582031 74.5625 380.582031 C 77.605469 380.582031 79.929688 381.71875 81.324219 383.875 L 79.726562 384.472656 C 78.652344 382.820312 76.960938 381.515625 74.613281 381.515625 C 70.769531 381.515625 70.261719 384.25 70.484375 385.214844 C 70.894531 386.984375 72.796875 387.445312 75.804688 388.53125 C 78.65625 389.5625 81.921875 391.195312 81.921875 394.226562 Z M 81.921875 394.226562 " clip-rule="nonzero"/></clipPath><clipPath id="a5ca6079c0"><path d="M 0.0859375 0.582031 L 13.5 0.582031 L 13.5 18.390625 L 0.0859375 18.390625 Z M 0.0859375 0.582031 " clip-rule="nonzero"/></clipPath><clipPath id="b9dc6f658e"><path d="M 13.921875 14.226562 C 13.921875 17.644531 10.351562 18.886719 7.035156 18.886719 C 3.554688 18.886719 1.054688 17.441406 0.351562 14.582031 L 2.074219 14.238281 C 2.5 16.140625 3.90625 17.800781 7.492188 17.800781 C 9.652344 17.800781 11.515625 16.5 11.527344 14.496094 C 11.542969 12.515625 9.378906 11.824219 6.253906 10.691406 C 3.492188 9.695312 0.140625 8.632812 0.140625 5.304688 C 0.140625 3.476562 2.046875 0.582031 6.5625 0.582031 C 9.605469 0.582031 11.929688 1.71875 13.324219 3.875 L 11.726562 4.472656 C 10.652344 2.820312 8.960938 1.515625 6.613281 1.515625 C 2.769531 1.515625 2.261719 4.25 2.484375 5.214844 C 2.894531 6.984375 4.796875 7.445312 7.804688 8.53125 C 10.65625 9.5625 13.921875 11.195312 13.921875 14.226562 Z M 13.921875 14.226562 " clip-rule="nonzero"/></clipPath><clipPath id="39faf3ea71"><rect x="0" width="14" y="0" height="19"/></clipPath></defs><g clip-path="url(#5c70873cf2)"><path fill="#ffffff" d="M 36.238281 192.914062 C 10.710938 197.320312 8.925781 269.367188 44.441406 264.4375 C 70.574219 260.8125 71.191406 186.875 36.238281 192.914062 M 39.164062 191.023438 C 81.566406 188.949219 83.839844 264.949219 41.710938 266.457031 C -1.039062 267.988281 -2.78125 193.070312 39.164062 191.023438 " fill-opacity="1" fill-rule="nonzero"/></g><g clip-path="url(#b3b48f540d)"><path fill="#ffffff" d="M 36.238281 287.699219 C 10.710938 292.109375 8.925781 364.15625 44.441406 359.226562 C 70.574219 355.597656 71.191406 281.664062 36.238281 287.699219 M 39.164062 285.808594 C 81.566406 283.738281 83.839844 359.734375 41.710938 361.246094 C -1.039062 362.777344 -2.78125 287.859375 39.164062 285.808594 " fill-opacity="1" fill-rule="nonzero"/></g><g clip-path="url(#8f96453422)"><path fill="#ffffff" d="M 41.167969 125.6875 C 34.839844 126.019531 25.507812 130.792969 22.390625 136.355469 C 23.996094 140.691406 22.816406 145.238281 23.382812 149.640625 C 25.046875 162.589844 31.265625 173.296875 46.179688 169.824219 C 63.292969 165.835938 63.703125 124.507812 41.167969 125.6875 M 64.199219 108.320312 L 57.554688 111.191406 C 55.527344 104.402344 51.351562 98.382812 43.714844 97.835938 C 27.921875 96.699219 22.5 119.820312 23.273438 132.140625 C 40.527344 117.277344 69.488281 123.746094 68.042969 149.792969 C 66.671875 174.484375 28.203125 180.535156 17.382812 158.5 C 7.191406 137.742188 14.070312 96.171875 42.78125 95.964844 C 50.4375 95.910156 61.316406 100.890625 64.199219 108.320312 " fill-opacity="1" fill-rule="nonzero"/></g><g clip-path="url(#4cb0e3011b)"><g clip-path="url(#9e390b182a)"><g transform="matrix(1, 0, 0, 1, 15, 0.000000000000020095)"><g clip-path="url(#30eb8c8e81)"><g clip-path="url(#5da698ab29)"><g clip-path="url(#56d4aef9ae)"><path fill="#ffffff" d="M 0.679688 0.53125 L 52.882812 0.53125 L 52.882812 74.257812 L 0.679688 74.257812 Z M 0.679688 0.53125 " fill-opacity="1" fill-rule="nonzero"/></g></g></g></g></g></g><g clip-path="url(#135badbf25)"><g clip-path="url(#8a00298788)"><g transform="matrix(1, 0, 0, 1, 0, 380)"><g clip-path="url(#4e5ea2a61b)"><g clip-path="url(#b1218dbbd9)"><g clip-path="url(#08980d2bda)"><path fill="#ffffff" d="M -0.0664062 0.476562 L 13.5 0.476562 L 13.5 18.445312 L -0.0664062 18.445312 Z M -0.0664062 0.476562 " fill-opacity="1" fill-rule="nonzero"/></g></g></g></g></g></g><g clip-path="url(#758a9074e8)"><g clip-path="url(#d9f41fc495)"><g transform="matrix(1, 0, 0, 1, 17, 380)"><g clip-path="url(#fb0eb0df15)"><g clip-path="url(#4d0ee4a962)"><g clip-path="url(#b676913bd2)"><path fill="#ffffff" d="M 0.222656 0.5 L 12.183594 0.5 L 12.183594 18.4375 L 0.222656 18.4375 Z M 0.222656 0.5 " fill-opacity="1" fill-rule="nonzero"/></g></g></g></g></g></g><g clip-path="url(#73d30c6e8d)"><path fill="#ffffff" d="M 35.332031 393.390625 L 43.746094 393.390625 L 43.519531 392.761719 L 39.574219 382.59375 L 35.402344 393.207031 Z M 48.542969 398.300781 L 45.640625 398.300781 L 45.515625 397.992188 L 44.421875 395.132812 L 44.152344 394.484375 L 34.902344 394.484375 L 34.632812 395.132812 L 33.488281 397.992188 L 33.371094 398.296875 L 32.195312 398.296875 L 32.445312 397.671875 L 38.886719 381.542969 L 39.28125 380.515625 L 41.652344 380.515625 L 41.769531 380.824219 L 48.304688 397.671875 Z M 48.542969 398.300781 " fill-opacity="1" fill-rule="nonzero"/></g><g clip-path="url(#712eea44d7)"><g clip-path="url(#2b53d21ecc)"><g transform="matrix(1, 0, 0, 1, 49, 380)"><g clip-path="url(#059c1e651e)"><g clip-path="url(#ba2d8a2d7c)"><g clip-path="url(#a84abaa74b)"><path fill="#ffffff" d="M 0.167969 0.476562 L 16.140625 0.476562 L 16.140625 18.382812 L 0.167969 18.382812 Z M 0.167969 0.476562 " fill-opacity="1" fill-rule="nonzero"/></g></g></g></g></g></g><g clip-path="url(#07f728054c)"><g clip-path="url(#f7e455fce5)"><g transform="matrix(1, 0, 0, 1, 68, 380)"><g clip-path="url(#39faf3ea71)"><g clip-path="url(#a5ca6079c0)"><g clip-path="url(#b9dc6f658e)"><path fill="#ffffff" d="M 0.140625 0.582031 L 13.921875 0.582031 L 13.921875 18.882812 L 0.140625 18.882812 Z M 0.140625 0.582031 " fill-opacity="1" fill-rule="nonzero"/></g></g></g></g></g></g></svg>